<?xml version="1.0" encoding="iso-8859-1"?>
<!-- Generator: Adobe Illustrator 16.0.0, SVG Export Plug-In . SVG Version: 6.00 Build 0)  -->
<!DOCTYPE svg PUBLIC "-//W3C//DTD SVG 1.1//EN" "http://www.w3.org/Graphics/SVG/1.1/DTD/svg11.dtd">
<svg version="1.1" id="Capa_1" xmlns="http://www.w3.org/2000/svg" xmlns:xlink="http://www.w3.org/1999/xlink" x="0px" y="0px"
	 width="178.884px" height="149.053px" viewBox="0 0 178.884 149.053" style="enable-background:new 0 0 178.884 149.053;"
	 xml:space="preserve">
<g>
	<g>
		<path style="fill:#549947;" d="M37.012,0h10.664c4.859,0,8.387,0.691,10.582,2.074c2.195,1.383,3.293,3.582,3.293,6.598
			c0,2.047-0.48,3.727-1.441,5.039s-2.238,2.102-3.832,2.367v0.234c2.171,0.484,3.738,1.391,4.699,2.719s1.441,3.094,1.441,5.297
			c0,3.125-1.129,5.563-3.387,7.313c-2.258,1.75-5.324,2.625-9.199,2.625h-12.82V0z M44.278,13.57h4.219
			c1.969,0,3.395-0.305,4.277-0.914c0.882-0.609,1.324-1.617,1.324-3.023c0-1.313-0.48-2.254-1.441-2.824s-2.481-0.855-4.559-0.855
			h-3.82V13.57z M44.278,19.336v8.93h4.734c2,0,3.477-0.383,4.43-1.148c0.953-0.766,1.43-1.938,1.43-3.516
			c0-2.844-2.031-4.266-6.094-4.266H44.278z"/>
		<path style="fill:#549947;" d="M85.34,34.266l-1.383-3.563H83.77c-1.204,1.516-2.441,2.566-3.715,3.152
			c-1.274,0.586-2.934,0.879-4.98,0.879c-2.516,0-4.497-0.719-5.941-2.156c-1.445-1.438-2.168-3.484-2.168-6.141
			c0-2.781,0.973-4.832,2.918-6.152s4.878-2.051,8.801-2.191l4.547-0.141v-1.148c0-2.656-1.359-3.984-4.078-3.984
			c-2.094,0-4.555,0.633-7.383,1.898l-2.367-4.828c3.015-1.578,6.359-2.367,10.031-2.367c3.516,0,6.211,0.766,8.086,2.297
			s2.812,3.859,2.812,6.984v17.461H85.34z M83.231,22.125l-2.766,0.094c-2.078,0.063-3.625,0.438-4.641,1.125
			c-1.016,0.688-1.523,1.734-1.523,3.141c0,2.016,1.156,3.023,3.469,3.023c1.656,0,2.98-0.477,3.973-1.43
			c0.992-0.953,1.488-2.219,1.488-3.797V22.125z"/>
		<path style="fill:#549947;" d="M115.973,26.484c0,2.688-0.934,4.734-2.801,6.141s-4.66,2.109-8.379,2.109
			c-1.906,0-3.531-0.129-4.875-0.387s-2.602-0.637-3.773-1.137v-5.906c1.328,0.625,2.824,1.148,4.488,1.57s3.129,0.633,4.395,0.633
			c2.594,0,3.891-0.75,3.891-2.25c0-0.563-0.172-1.02-0.516-1.371s-0.938-0.75-1.781-1.195s-1.969-0.965-3.375-1.559
			c-2.016-0.844-3.496-1.625-4.441-2.344s-1.633-1.543-2.063-2.473s-0.645-2.074-0.645-3.434c0-2.328,0.902-4.129,2.707-5.402
			s4.363-1.91,7.676-1.91c3.156,0,6.227,0.688,9.211,2.063l-2.156,5.156c-1.313-0.563-2.539-1.023-3.68-1.383
			s-2.305-0.539-3.492-0.539c-2.109,0-3.164,0.57-3.164,1.711c0,0.641,0.34,1.195,1.02,1.664s2.168,1.164,4.465,2.086
			c2.047,0.828,3.547,1.602,4.5,2.32s1.656,1.547,2.109,2.484S115.973,25.188,115.973,26.484z"/>
		<path style="fill:#549947;" d="M133.41,34.734c-4.219,0-7.516-1.164-9.891-3.492s-3.563-5.625-3.563-9.891
			c0-4.391,1.098-7.785,3.293-10.184s5.23-3.598,9.105-3.598c3.703,0,6.586,1.055,8.648,3.164s3.094,5.023,3.094,8.742v3.469
			h-16.898c0.078,2.031,0.68,3.617,1.805,4.758s2.703,1.711,4.734,1.711c1.578,0,3.07-0.164,4.477-0.492s2.875-0.852,4.406-1.57
			v5.531c-1.25,0.625-2.586,1.09-4.008,1.395S135.457,34.734,133.41,34.734z M132.402,12.656c-1.516,0-2.703,0.48-3.563,1.441
			s-1.352,2.324-1.477,4.09h10.031c-0.031-1.766-0.492-3.129-1.383-4.09S133.918,12.656,132.402,12.656z"/>
	</g>
	<path style="fill:#549947;" d="M172.197,82.188H6.688C3.009,82.188,0,79.178,0,75.501V69.02c0-3.679,3.009-6.687,6.688-6.687
		h165.51c3.678,0,6.687,3.008,6.687,6.687v6.481C178.884,79.178,175.875,82.188,172.197,82.188"/>
	<path style="fill:none;stroke:#549947;stroke-miterlimit:10;" d="M172.197,82.188H6.688C3.009,82.188,0,79.178,0,75.501V69.02
		c0-3.679,3.009-6.687,6.688-6.687h165.51c3.678,0,6.687,3.008,6.687,6.687v6.481C178.884,79.178,175.875,82.188,172.197,82.188z"/>
	<path style="fill:#549947;" d="M172.197,115.62H6.688c-3.678,0-6.688-3.01-6.688-6.687v-6.481c0-3.679,3.009-6.687,6.688-6.687
		h165.51c3.678,0,6.687,3.008,6.687,6.687v6.481C178.884,112.61,175.875,115.62,172.197,115.62"/>
	<path style="fill:none;stroke:#549947;stroke-miterlimit:10;" d="M172.197,115.62H6.688c-3.678,0-6.688-3.01-6.688-6.687v-6.481
		c0-3.679,3.009-6.687,6.688-6.687h165.51c3.678,0,6.687,3.008,6.687,6.687v6.481C178.884,112.61,175.875,115.62,172.197,115.62z"/>
	<path style="fill:#549947;" d="M172.197,149.053H6.688c-3.678,0-6.688-3.01-6.688-6.687v-6.481c0-3.679,3.009-6.688,6.688-6.688
		h165.51c3.678,0,6.687,3.009,6.687,6.688v6.481C178.884,146.043,175.875,149.053,172.197,149.053"/>
	<path style="fill:none;stroke:#549947;stroke-miterlimit:10;" d="M172.197,149.053H6.688c-3.678,0-6.688-3.01-6.688-6.687v-6.481
		c0-3.679,3.009-6.688,6.688-6.688h165.51c3.678,0,6.687,3.009,6.687,6.688v6.481C178.884,146.043,175.875,149.053,172.197,149.053z
		"/>
</g>
</svg>
