<?xml version="1.0" encoding="iso-8859-1"?>
<!-- Generator: Adobe Illustrator 16.0.0, SVG Export Plug-In . SVG Version: 6.00 Build 0)  -->
<!DOCTYPE svg PUBLIC "-//W3C//DTD SVG 1.1//EN" "http://www.w3.org/Graphics/SVG/1.1/DTD/svg11.dtd">
<svg version="1.1" id="Capa_1" xmlns="http://www.w3.org/2000/svg" xmlns:xlink="http://www.w3.org/1999/xlink" x="0px" y="0px"
	 width="293.009px" height="217.033px" viewBox="0 0 293.009 217.033" style="enable-background:new 0 0 293.009 217.033;"
	 xml:space="preserve">
<g>
	<path style="fill:#549947;" d="M43.208,19.008c0,5.641-1.605,9.961-4.816,12.961s-7.848,4.5-13.91,4.5h-9.703V2.203h10.758
		c5.593,0,9.938,1.477,13.031,4.43S43.208,13.711,43.208,19.008z M35.661,19.195c0-7.359-3.25-11.039-9.75-11.039h-3.867v22.313
		h3.117C32.161,30.469,35.661,26.711,35.661,19.195z"/>
	<path style="fill:#549947;" d="M49.442,3.492C49.442,1.164,50.739,0,53.333,0c2.593,0,3.891,1.164,3.891,3.492
		c0,1.109-0.325,1.973-0.973,2.59c-0.648,0.617-1.621,0.926-2.918,0.926C50.739,7.008,49.442,5.836,49.442,3.492z M56.896,36.469
		h-7.148V10.266h7.148V36.469z"/>
	<path style="fill:#549947;" d="M82.677,28.688c0,2.688-0.934,4.734-2.801,6.141c-1.867,1.406-4.661,2.109-8.379,2.109
		c-1.907,0-3.531-0.129-4.875-0.387c-1.344-0.258-2.602-0.637-3.773-1.137v-5.906c1.328,0.625,2.824,1.148,4.488,1.57
		s3.129,0.633,4.395,0.633c2.593,0,3.891-0.75,3.891-2.25c0-0.563-0.172-1.02-0.516-1.371c-0.344-0.352-0.938-0.75-1.781-1.195
		s-1.969-0.965-3.375-1.559c-2.016-0.844-3.496-1.625-4.441-2.344c-0.946-0.719-1.633-1.543-2.063-2.473
		c-0.43-0.93-0.645-2.074-0.645-3.434c0-2.328,0.902-4.129,2.707-5.402s4.363-1.91,7.676-1.91c3.156,0,6.226,0.688,9.211,2.063
		l-2.156,5.156c-1.313-0.563-2.54-1.023-3.68-1.383c-1.141-0.359-2.305-0.539-3.492-0.539c-2.109,0-3.164,0.57-3.164,1.711
		c0,0.641,0.34,1.195,1.02,1.664s2.168,1.164,4.465,2.086c2.047,0.828,3.547,1.602,4.5,2.32c0.953,0.719,1.656,1.547,2.109,2.484
		C82.45,26.273,82.677,27.391,82.677,28.688z"/>
	<path style="fill:#549947;" d="M102.646,36.938c-3.079,0-5.493-1.117-7.242-3.352h-0.375c0.25,2.188,0.375,3.453,0.375,3.797V48
		h-7.148V10.266h5.813l1.008,3.398h0.328c1.672-2.594,4.148-3.891,7.43-3.891c3.094,0,5.516,1.195,7.266,3.586
		c1.75,2.391,2.625,5.711,2.625,9.961c0,2.797-0.41,5.227-1.23,7.289s-1.989,3.633-3.504,4.711
		C106.474,36.398,104.692,36.938,102.646,36.938z M100.536,15.492c-1.766,0-3.055,0.543-3.867,1.629
		C95.856,18.207,95.435,20,95.403,22.5v0.773c0,2.813,0.418,4.828,1.254,6.047c0.835,1.219,2.16,1.828,3.973,1.828
		c3.203,0,4.805-2.641,4.805-7.922c0-2.578-0.395-4.512-1.184-5.801C103.462,16.137,102.224,15.492,100.536,15.492z"/>
	<path style="fill:#549947;" d="M135.271,36.469l-1.383-3.563H133.7c-1.204,1.516-2.441,2.566-3.715,3.152
		c-1.274,0.586-2.934,0.879-4.98,0.879c-2.516,0-4.497-0.719-5.941-2.156c-1.445-1.438-2.168-3.484-2.168-6.141
		c0-2.781,0.973-4.832,2.918-6.152s4.878-2.051,8.801-2.191l4.547-0.141v-1.148c0-2.656-1.359-3.984-4.078-3.984
		c-2.094,0-4.555,0.633-7.383,1.898l-2.367-4.828c3.015-1.578,6.359-2.367,10.031-2.367c3.516,0,6.211,0.766,8.086,2.297
		s2.813,3.859,2.813,6.984v17.461H135.271z M133.161,24.328l-2.766,0.094c-2.078,0.063-3.625,0.438-4.641,1.125
		c-1.016,0.688-1.523,1.734-1.523,3.141c0,2.016,1.156,3.023,3.469,3.023c1.656,0,2.98-0.477,3.973-1.43
		c0.992-0.953,1.488-2.219,1.488-3.797V24.328z"/>
	<path style="fill:#549947;" d="M162.248,9.773c0.968,0,1.772,0.07,2.414,0.211l-0.539,6.703c-0.579-0.156-1.282-0.234-2.109-0.234
		c-2.282,0-4.06,0.586-5.332,1.758c-1.274,1.172-1.91,2.813-1.91,4.922v13.336h-7.148V10.266h5.414l1.055,4.406h0.352
		c0.812-1.469,1.91-2.652,3.293-3.551S160.622,9.773,162.248,9.773z"/>
	<path style="fill:#549947;" d="M186.06,36.469l-1.383-3.563h-0.188c-1.203,1.516-2.441,2.566-3.715,3.152s-2.934,0.879-4.98,0.879
		c-2.516,0-4.496-0.719-5.941-2.156s-2.168-3.484-2.168-6.141c0-2.781,0.973-4.832,2.918-6.152s4.879-2.051,8.801-2.191l4.547-0.141
		v-1.148c0-2.656-1.359-3.984-4.078-3.984c-2.094,0-4.555,0.633-7.383,1.898l-2.367-4.828c3.016-1.578,6.359-2.367,10.031-2.367
		c3.516,0,6.211,0.766,8.086,2.297s2.813,3.859,2.813,6.984v17.461H186.06z M183.951,24.328l-2.766,0.094
		c-2.078,0.063-3.625,0.438-4.641,1.125s-1.523,1.734-1.523,3.141c0,2.016,1.156,3.023,3.469,3.023c1.656,0,2.98-0.477,3.973-1.43
		s1.488-2.219,1.488-3.797V24.328z"/>
	<path style="fill:#549947;" d="M206.708,36.938c-3.078,0-5.496-1.195-7.254-3.586s-2.637-5.703-2.637-9.938
		c0-4.297,0.895-7.645,2.684-10.043s4.254-3.598,7.395-3.598c3.297,0,5.813,1.281,7.547,3.844h0.234
		c-0.359-1.953-0.539-3.695-0.539-5.227V0h7.172v36.469h-5.484l-1.383-3.398h-0.305C212.513,35.648,210.037,36.938,206.708,36.938z
		 M209.216,31.242c1.828,0,3.168-0.531,4.02-1.594s1.316-2.867,1.395-5.414v-0.773c0-2.813-0.434-4.828-1.301-6.047
		s-2.277-1.828-4.23-1.828c-1.594,0-2.832,0.676-3.715,2.027s-1.324,3.316-1.324,5.895s0.445,4.512,1.336,5.801
		S207.56,31.242,209.216,31.242z"/>
	<path style="fill:#549947;" d="M252.599,23.32c0,4.266-1.125,7.602-3.375,10.008s-5.383,3.609-9.398,3.609
		c-2.516,0-4.734-0.551-6.656-1.652s-3.398-2.684-4.43-4.746s-1.547-4.469-1.547-7.219c0-4.281,1.117-7.609,3.352-9.984
		s5.375-3.563,9.422-3.563c2.516,0,4.734,0.547,6.656,1.641s3.398,2.664,4.43,4.711S252.599,20.57,252.599,23.32z M234.482,23.32
		c0,2.594,0.426,4.555,1.277,5.883s2.238,1.992,4.16,1.992c1.906,0,3.277-0.66,4.113-1.98s1.254-3.285,1.254-5.895
		c0-2.594-0.422-4.539-1.266-5.836s-2.227-1.945-4.148-1.945c-1.906,0-3.281,0.645-4.125,1.934S234.482,20.711,234.482,23.32z"/>
	<path style="fill:#549947;" d="M273.13,9.773c0.969,0,1.773,0.07,2.414,0.211l-0.539,6.703c-0.578-0.156-1.281-0.234-2.109-0.234
		c-2.281,0-4.059,0.586-5.332,1.758s-1.91,2.813-1.91,4.922v13.336h-7.148V10.266h5.414l1.055,4.406h0.352
		c0.813-1.469,1.91-2.652,3.293-3.551S271.505,9.773,273.13,9.773z"/>
</g>
<path style="fill:#549947;" d="M293.009,217.033H0v-91.756c0-40.575,33.01-73.584,73.585-73.584h145.838
	c40.575,0,73.586,33.01,73.586,73.584V217.033z M21.837,195.195h249.334v-69.918c0-28.534-23.214-51.748-51.748-51.748H73.585
	c-28.534,0-51.749,23.214-51.749,51.748V195.195z"/>
</svg>
