<?xml version="1.0" encoding="iso-8859-1"?>
<!-- Generator: Adobe Illustrator 16.0.0, SVG Export Plug-In . SVG Version: 6.00 Build 0)  -->
<!DOCTYPE svg PUBLIC "-//W3C//DTD SVG 1.1//EN" "http://www.w3.org/Graphics/SVG/1.1/DTD/svg11.dtd">
<svg version="1.1" id="Capa_1" xmlns="http://www.w3.org/2000/svg" xmlns:xlink="http://www.w3.org/1999/xlink" x="0px" y="0px"
	 width="199.886px" height="194.414px" viewBox="0 0 199.886 194.414" style="enable-background:new 0 0 199.886 194.414;"
	 xml:space="preserve">
<g>
	<g>
		<path style="fill:#549947;" d="M57.215,19.008c0,5.641-1.605,9.961-4.816,12.961s-7.848,4.5-13.91,4.5h-9.703V2.203h10.758
			c5.594,0,9.938,1.477,13.031,4.43S57.215,13.711,57.215,19.008z M49.668,19.195c0-7.359-3.25-11.039-9.75-11.039h-3.867v22.313
			h3.117C46.168,30.469,49.668,26.711,49.668,19.195z"/>
		<path style="fill:#549947;" d="M78.379,9.773c0.969,0,1.773,0.07,2.414,0.211l-0.539,6.703c-0.578-0.156-1.281-0.234-2.109-0.234
			c-2.281,0-4.059,0.586-5.332,1.758s-1.91,2.813-1.91,4.922v13.336h-7.148V10.266h5.414l1.055,4.406h0.352
			c0.813-1.468,1.91-2.652,3.293-3.551C75.25,10.223,76.754,9.773,78.379,9.773z"/>
		<path style="fill:#549947;" d="M85.247,3.492C85.247,1.164,86.543,0,89.137,0s3.891,1.164,3.891,3.492
			c0,1.11-0.324,1.973-0.973,2.59c-0.648,0.618-1.621,0.926-2.918,0.926C86.543,7.008,85.247,5.836,85.247,3.492z M92.7,36.469
			h-7.148V10.266H92.7V36.469z"/>
		<path style="fill:#549947;" d="M106.434,36.469L96.45,10.266h7.477l5.063,14.93c0.563,1.891,0.914,3.68,1.055,5.367h0.141
			c0.078-1.5,0.43-3.289,1.055-5.367l5.039-14.93h7.477l-9.984,26.203H106.434z"/>
		<path style="fill:#549947;" d="M139.364,36.938c-4.219,0-7.516-1.164-9.891-3.492c-2.375-2.328-3.563-5.625-3.563-9.891
			c0-4.391,1.098-7.785,3.293-10.184c2.195-2.398,5.23-3.598,9.105-3.598c3.703,0,6.586,1.055,8.648,3.164s3.094,5.024,3.094,8.742
			v3.469h-16.898c0.078,2.031,0.68,3.618,1.805,4.758c1.125,1.141,2.703,1.711,4.734,1.711c1.578,0,3.07-0.164,4.477-0.492
			s2.875-0.852,4.406-1.57v5.531c-1.25,0.625-2.586,1.09-4.008,1.395S141.411,36.938,139.364,36.938z M138.356,14.859
			c-1.516,0-2.703,0.48-3.563,1.441s-1.352,2.324-1.477,4.09h10.031c-0.031-1.766-0.492-3.129-1.383-4.09
			S139.872,14.859,138.356,14.859z"/>
		<path style="fill:#549947;" d="M170.489,9.773c0.969,0,1.773,0.07,2.414,0.211l-0.539,6.703c-0.578-0.156-1.281-0.234-2.109-0.234
			c-2.281,0-4.059,0.586-5.332,1.758s-1.91,2.813-1.91,4.922v13.336h-7.148V10.266h5.414l1.055,4.406h0.352
			c0.813-1.468,1.91-2.652,3.293-3.551C167.36,10.223,168.864,9.773,170.489,9.773z"/>
	</g>
	<rect x="6.493" y="76.414" style="fill:none;stroke:#549947;stroke-width:7;stroke-miterlimit:10;" width="192" height="118"/>
	<rect x="24.493" y="92.314" style="fill:#549947;" width="52.5" height="32.266"/>
	<rect x="24.493" y="169.414" style="fill:#549947;" width="52.5" height="8.167"/>
	<rect x="143.61" y="141.277" style="fill:#549947;" width="22.383" height="36.42"/>
</g>
</svg>
