<svg xmlns="http://www.w3.org/2000/svg" viewBox="0 0 203.44 111.63"><defs><style>.cls-1{fill:#fff;}.cls-2{fill:none;stroke:#fff;stroke-linecap:round;stroke-linejoin:round;stroke-width:6.7px;}</style></defs><title>encendidoInmed</title><g id="Capa_2" data-name="Capa 2"><g id="Capa_1-2" data-name="Capa 1"><rect class="cls-1" y="37.39" width="75.83" height="9.95" rx="1.96" ry="1.96"/><rect class="cls-1" x="22.24" y="55.6" width="53.59" height="9.74" rx="1.92" ry="1.92"/><rect class="cls-1" x="39.82" y="73.18" width="36.01" height="9.95" rx="1.96" ry="1.96"/><path class="cls-1" d="M147.63,6A49.86,49.86,0,1,1,97.77,55.81,49.92,49.92,0,0,1,147.63,6m0-6a55.81,55.81,0,1,0,55.81,55.81A55.81,55.81,0,0,0,147.63,0Z"/><path class="cls-2" d="M161.94,39c7.26,4.27,10.36,10.39,10.36,19.42a24.57,24.57,0,1,1-39.77-19.3"/><rect class="cls-1" x="143.08" y="21.71" width="7.19" height="44.48" rx="2.04" ry="2.04"/></g></g></svg>