<svg xmlns="http://www.w3.org/2000/svg" viewBox="0 0 64.23 114.11"><defs><style>.cls-1{fill:none;stroke:#fff;stroke-miterlimit:10;stroke-width:4.96px;}.cls-2{fill:#fff;}</style></defs><title>granAhorro_1</title><g id="Capa_2" data-name="Capa 2"><g id="Capa_1-2" data-name="Capa 1"><path class="cls-1" d="M61.74,33c0,22.11-13.27,44.68-29.63,44.68S2.48,55.15,2.48,33,15.75,2.48,32.11,2.48,61.74,10.94,61.74,33Z"/><rect class="cls-2" x="15.51" y="85.5" width="33.2" height="7.14" rx="3.57" ry="3.57"/><rect class="cls-2" x="15.51" y="95.91" width="33.2" height="7.14" rx="3.57" ry="3.57"/><path class="cls-2" d="M33.89,113.55a3.09,3.09,0,0,1-3.56,0l-2.5-2.37-3.46-3.28c-.36-.34.09-.77.82-.77H39c.73,0,1.18.43.82.77l-3.46,3.28Z"/><path class="cls-2" d="M30,47.75a24.8,24.8,0,0,1-8.81-2V38.77a30.06,30.06,0,0,0,5.26,2.06,18.22,18.22,0,0,0,5,.82,5.93,5.93,0,0,0,2.6-.43,1.49,1.49,0,0,0,.83-1.43,1.45,1.45,0,0,0-.6-1.17,9.17,9.17,0,0,0-2-1.09q-1.39-.6-3.75-1.46a17,17,0,0,1-4.28-2.2,7.67,7.67,0,0,1-2.37-2.73,8.52,8.52,0,0,1-.74-3.77A6.79,6.79,0,0,1,23.39,22,11.75,11.75,0,0,1,30,19.59V16.73h4.32v2.82a24.47,24.47,0,0,1,8.37,2l-2.48,5.95a19.48,19.48,0,0,0-7.87-2A4.87,4.87,0,0,0,30,26a1.31,1.31,0,0,0-.68,1.2,1.48,1.48,0,0,0,.49,1.14,6.9,6.9,0,0,0,1.7,1q1.21.55,3.36,1.28a16.27,16.27,0,0,1,6.26,3.52A7,7,0,0,1,43,39.21a7.64,7.64,0,0,1-2.22,5.7,10.82,10.82,0,0,1-6.48,2.71v4H30Z"/></g></g></svg>