<svg id="Capa_1" data-name="Capa 1" xmlns="http://www.w3.org/2000/svg" viewBox="0 0 293.01 783.74"><defs><style>.cls-1,.cls-4{fill:#549947;}.cls-1,.cls-2,.cls-3{stroke:#549947;stroke-miterlimit:10;}.cls-2,.cls-3{fill:none;}.cls-2{stroke-width:21.84px;}.cls-3{stroke-width:22.27px;}</style></defs><title>lamp_on</title><polygon class="cls-1" points="139.07 0.5 138.92 110.14 97.94 151.12 203.28 151.12 162.3 110.14 162.3 0.5 139.07 0.5"/><rect class="cls-1" x="57.06" y="164.69" width="178.88" height="19.86" rx="6.69" ry="6.69"/><rect class="cls-1" x="57.06" y="198.13" width="178.88" height="19.86" rx="6.69" ry="6.69"/><rect class="cls-1" x="57.06" y="231.56" width="178.88" height="19.86" rx="6.69" ry="6.69"/><path class="cls-2" d="M73.59,275.79H219.42a62.67,62.67,0,0,1,62.67,62.67v80.84a0,0,0,0,1,0,0H10.92a0,0,0,0,1,0,0V338.45A62.67,62.67,0,0,1,73.59,275.79Z"/><path class="cls-3" d="M50.16,419.29h200.9a0,0,0,0,1,0,0V732.94A39.67,39.67,0,0,1,211.4,772.6H89.83a39.67,39.67,0,0,1-39.67-39.67V419.29A0,0,0,0,1,50.16,419.29Z"/><rect class="cls-4" x="88.39" y="463.58" width="20.04" height="28.21"/><rect class="cls-4" x="140.34" y="463.58" width="20.04" height="28.21"/><rect class="cls-4" x="192.8" y="463.58" width="20.04" height="28.21"/><rect class="cls-4" x="88.39" y="521.47" width="20.04" height="28.21"/><rect class="cls-4" x="140.34" y="521.47" width="20.04" height="28.21"/><rect class="cls-4" x="192.8" y="521.47" width="20.04" height="28.21"/><rect class="cls-4" x="88.39" y="579.37" width="20.04" height="28.21"/><rect class="cls-4" x="140.34" y="579.37" width="20.04" height="28.21"/><rect class="cls-4" x="192.8" y="579.37" width="20.04" height="28.21"/><rect class="cls-4" x="88.39" y="637.27" width="20.04" height="28.21"/><rect class="cls-4" x="140.34" y="637.27" width="20.04" height="28.21"/><rect class="cls-4" x="192.8" y="637.27" width="20.04" height="28.21"/><rect class="cls-4" x="88.39" y="695.16" width="20.04" height="28.21"/><rect class="cls-4" x="140.34" y="695.16" width="20.04" height="28.21"/><rect class="cls-4" x="192.8" y="695.16" width="20.04" height="28.21"/></svg>