<svg xmlns="http://www.w3.org/2000/svg" viewBox="0 0 243.61 243.61"><defs><style>.cls-1{fill:#fdc804;}.cls-2{fill:#fbc606;}.cls-3{fill:#fbc708;}.cls-4{fill:#fdc603;}.cls-5,.cls-6{fill:none;stroke-miterlimit:10;}.cls-5{stroke:#fce7a4;stroke-width:9.61px;}.cls-6{stroke:#fdc804;stroke-width:7.21px;}</style></defs><title>lampCFL</title><g id="Capa_2" data-name="Capa 2"><g id="Capa_1-2" data-name="Capa 1"><path class="cls-1" d="M124.5,15.51c0,8.48.07,17,0,25.43,0,1.86.67,2.83,2.09,4.06,3.28,2.86,6.12,6.22,9.1,9.32H108.06c3.3-3.42,6.22-6.92,9.93-9.58a3.58,3.58,0,0,0,1.69-3.33c0-8.64,0-17.27,0-25.91Z"/><path class="cls-2" d="M121.86,66.29c6.48,0,13,0,19.44,0,2.14,0,3.63,1.18,3.36,2.79a3,3,0,0,1-3.32,2.68c-13.13-.06-26.25,0-39.38,0-1.92,0-3.38-.62-3.42-2.78s1.52-2.79,3.39-2.8q10,0,19.93,0Z"/><path class="cls-3" d="M121.65,80.38c-6.48,0-13,0-19.44,0A3.67,3.67,0,0,1,98.85,79a2.67,2.67,0,0,1,1.4-3.93,7.94,7.94,0,0,1,2.37-.28q18,0,36,0c1.12,0,2.24.14,3.35.16a2.5,2.5,0,0,1,2.63,2.78,2.58,2.58,0,0,1-2.79,2.67c-6.72,0-13.44,0-20.16,0Z"/><path class="cls-4" d="M121.61,63.08c-6.64,0-13.28,0-19.91,0a2.87,2.87,0,0,1-3-1.85,2.57,2.57,0,0,1,.81-3,3.61,3.61,0,0,1,2.49-.57c13.19,0,26.39,0,39.58,0,1.88,0,3.05.94,3.07,2.6s-1,2.86-3.09,2.84C134.89,63,128.25,63.08,121.61,63.08Z"/><path class="cls-1" d="M160.08,109.42a4.8,4.8,0,0,0-1.06-3.08C154,99.57,148.88,92.81,144,85.93a5,5,0,0,0-4.59-2.31q-18.37.1-36.74,0a4.72,4.72,0,0,0-4.25,2.08c-4.74,6.43-9.5,12.84-14.35,19.18a8.57,8.57,0,0,0-1.92,5.94c.16,3.19,0,6.4,0,9.6,0,6.3,0,6.39,6.33,6.33,2.15,0,2.81.54,2.81,2.8q-.13,36.14,0,72.28c0,2.3-.2,4.64.47,6.91,1.8,6,5.7,10,11.82,11.35,6.38,1.37,12.09-.22,16.42-5.39.93-1.11,1.36-1.58,2.33-.07a12.21,12.21,0,0,0,5.37,4.28c11.56,5.32,23.41-3,23.34-13.88-.08-12.49,0-25,0-37.46h0q0-17.29,0-34.58c0-1.91-.62-4.34.3-5.61,1.09-1.49,3.7-.53,5.64-.68,2.15-.17,3.15-1.15,3.12-3.35C160,118.71,160,114.07,160.08,109.42ZM109.91,214.89c-5.92,1-10.69-1.5-12.82-6.76a9.65,9.65,0,0,1-.47-3.76q0-18.61,0-37.21c0-12.65,0-25.29,0-37.94,0-1.83.4-2.49,2.36-2.47,5.83.07,5.83,0,5.83,5.88q0,35.05,0,70.11c0,.72,0,1.44,0,2.16a2.4,2.4,0,0,0,2.45,2.69,2.65,2.65,0,0,0,2.86-2.62,12.51,12.51,0,0,0,0-1.44q0-37.09,0-74.19c0-1.93.39-2.62,2.46-2.59,5.73.09,5.73,0,5.73,5.79q0,35.65,0,71.31C118.25,209.54,114.87,214,109.91,214.89Zm25.09.23c-6.11-.11-10.94-4.34-10.95-10.31-.05-25.37,0-50.74-.06-76.12,0-1.43.34-1.91,1.85-1.93,6.34-.11,6.34-.17,6.34,6.12q0,34.58,0,69.15a23.18,23.18,0,0,0,0,3.12,2.55,2.55,0,0,0,2.76,2.44,2.43,2.43,0,0,0,2.49-2.65c0-1.12,0-2.24,0-3.36q0-36.14,0-72.28c0-2,.55-2.56,2.53-2.55,5.65,0,5.65-.05,5.65,5.59q0,17.53,0,35.06c0,12.41-.16,24.81.07,37.22A10.77,10.77,0,0,1,135,215.12Zm17.77-93.79c-10.56-.06-21.12,0-31.68,0s-21,0-31.44,0c-1.66,0-2.41-.4-2.14-2.11a.77.77,0,0,0,0-.24c-1.08-6.75,1-12.34,5.64-17.37a116.74,116.74,0,0,0,8.33-11.1,3.22,3.22,0,0,1,3-1.53q16.56.08,33.12,0a3.48,3.48,0,0,1,3.16,1.63q6.22,8.51,12.56,16.92a6.25,6.25,0,0,1,1.49,4.36,67.18,67.18,0,0,0,0,7.44C154.87,120.94,154.32,121.34,152.77,121.33Z"/><circle class="cls-5" cx="121.8" cy="121.8" r="117"/><path class="cls-6" d="M121.8,4.8A117,117,0,0,1,142.25,237"/></g></g></svg>