<svg xmlns="http://www.w3.org/2000/svg" viewBox="0 0 243.61 243.61"><defs><style>.cls-1{fill:#f3691d;}.cls-2{fill:#f36a1e;}.cls-3{fill:#f46920;}.cls-4{fill:#e85701;}.cls-5{fill:#f85004;}.cls-6{fill:#f74e00;}.cls-7,.cls-8{fill:none;stroke-miterlimit:10;}.cls-7{stroke:#edb29a;stroke-width:9.61px;}.cls-8{stroke:#f3691d;stroke-width:7.21px;}</style></defs><title>lampFluo</title><g id="Capa_2" data-name="Capa 2"><g id="Capa_1-2" data-name="Capa 1"><path class="cls-1" d="M124.52,32.38c0,8.56.06,17.12,0,25.68a4.24,4.24,0,0,0,1.85,3.62c3.31,2.93,6.19,6.35,9.2,9.52H108.34c-.34-.72.36-1,.72-1.29,3.28-3,5.91-6.77,9.86-9,1-.57.63-1.37.63-2.1,0-7.92,0-15.84,0-23.76,0-.87.09-1.75.14-2.62Z"/><path class="cls-2" d="M121.63,97.26H102.19c-2.65,0-3.85-.93-3.74-2.93.13-2.36,1.79-2.74,3.72-2.73l38.65,0c2.39,0,4.08,1.25,3.84,2.94-.31,2.12-1.78,2.74-3.82,2.72C134.44,97.22,128,97.26,121.63,97.26Z"/><path class="cls-1" d="M100.53,79.82a2.53,2.53,0,0,1-2-3.24c.28-1.6,1.48-2.11,3-2.11q20,0,40.09,0a2.7,2.7,0,0,1,2.89,2,2.21,2.21,0,0,1-1.48,3,6.87,6.87,0,0,1-2.61.18H103.16A10.17,10.17,0,0,0,100.53,79.82Z"/><path class="cls-3" d="M100.53,88.46c-1.45-.33-2.25-1.14-2-2.73.93-1.76,2.38-2.23,4.35-2.22,12.43.08,24.86,0,37.3,0a5.27,5.27,0,0,0,2.58-.22c2.45,1.53,2.54,3.19.26,4.82a6.86,6.86,0,0,1-2.6.19H103.15A10.8,10.8,0,0,0,100.53,88.46Z"/><path class="cls-4" d="M142.77,83.33c-.8.8-1.82.44-2.73.44-10.86,0-21.72,0-32.58,0-3.11,0-6.37-.66-8.92,1.94-.08-2.42,1.63-2.62,3.38-2.63,6.06,0,12.11,0,18.17,0q10,0,20.08,0C141,83.12,141.9,83.26,142.77,83.33Z"/><path class="cls-5" d="M100.53,88.46c.53-.5,1.2-.35,1.82-.35l40.67,0c-.47.62-1.16.43-1.77.43H101.47A6.59,6.59,0,0,1,100.53,88.46Z"/><path class="cls-6" d="M100.53,79.82a2,2,0,0,1,1.58-.35l40.88,0c-.38.57-1,.43-1.52.43H101.24A4.31,4.31,0,0,1,100.53,79.82Z"/><path class="cls-1" d="M156.61,135.86c-4.49-7.2-8.65-14.31-8.44-23.19.1-4.44-2.39-7.84-5.16-11a3.19,3.19,0,0,0-2.69-1.19q-19.21.19-38.41.23a4,4,0,0,0-3.29,1.56,19.1,19.1,0,0,0-5,13.34,25,25,0,0,1-3.83,14.12c-4.55,7.17-8.6,14.6-10.71,22.91-.64,2.52-1.14,5.07-1.7,7.6v10.57c.5.16.4.6.47,1,2,11.5,6.89,21.46,16.22,28.74,10,7.82,21.58,9.74,34,8.34,22.31-2.52,35.7-20.47,37.32-40.71C166.34,156.31,162.72,145.66,156.61,135.86Zm-28.4,67.43C116,204.91,104.42,203,95,194c-7-6.75-10.68-15.22-11.8-24.77C81.84,157.33,86,146.8,92,136.86c3.12-5.15,6.11-10.28,6.88-16.4.35-2.78-.08-5.6.57-8.36a11.66,11.66,0,0,1,.73-2.52c1-2.08,2.31-3.51,5.11-3.36,5.27.27,10.55.08,15.83.08v-.36h13.92c5.24,0,7.56,2.36,7.7,7.79a47.59,47.59,0,0,0,1.15,9.24c.94,4.21,3,7.84,5.37,11.4,5.1,7.81,9.31,16,10.48,25.45C161.84,176.68,152.7,200,128.21,203.28Z"/><circle class="cls-7" cx="121.8" cy="121.8" r="117"/><path class="cls-8" d="M121.8,4.8a116.46,116.46,0,0,1,58.11,15.43"/></g></g></svg>