<svg xmlns="http://www.w3.org/2000/svg" viewBox="0 0 243.61 243.61"><defs><style>.cls-1{fill:#8cc53b;}.cls-2{fill:#8ec53c;}.cls-3{fill:#8cc63c;}.cls-4{fill:#8dc63d;}.cls-5{fill:#7ab513;}.cls-6{fill:#7cba10;}.cls-7{fill:#80b81a;}.cls-8{fill:#8cc43c;}.cls-9{fill:#81b71a;}.cls-10{fill:#84b510;}.cls-11{fill:#8fc73f;}.cls-12{fill:#90c63f;}.cls-13{fill:#8ac437;}.cls-14{fill:#8fc640;}.cls-15{fill:#8cc53a;}.cls-16{fill:#8dc53b;}.cls-17{fill:#8cc43b;}.cls-18{fill:#8bc43a;}.cls-19{fill:#8dc43d;}.cls-20{fill:#8bc339;}.cls-21{fill:#8ac235;}.cls-22,.cls-23{fill:none;stroke-miterlimit:10;}.cls-22{stroke:#b6c19f;stroke-width:9.61px;}.cls-23{stroke:#8cc53b;stroke-width:7.21px;}</style></defs><title>lampLED</title><g id="Capa_2" data-name="Capa 2"><g id="Capa_1-2" data-name="Capa 1"><path class="cls-1" d="M126,16.23c0,8.56.11,17.12,0,25.68,0,1.69.64,2.49,1.86,3.63,3.26,3,6.12,6.5,8.85,9.49H109.91c-.28-.65.39-.92.74-1.24,3.31-3,5.92-6.76,9.85-9.06,1.06-.62.66-1.54.67-2.34,0-8.72,0-17.44.06-26.16Z"/><path class="cls-2" d="M123,72.48q-9.59,0-19.18,0c-2.7,0-3.85-.87-3.76-2.87.1-2.36,1.77-2.78,3.68-2.78,12.94,0,25.89,0,38.83,0,2,0,3.49.62,3.7,2.82.16,1.72-1.3,2.84-3.61,2.84Q132.79,72.5,123,72.48Z"/><path class="cls-3" d="M122.92,75.45q9.73,0,19.45,0c2.51,0,4,1.09,3.9,2.87s-1.51,2.79-4,2.8H104.08c-2.82,0-4.09-.91-4.06-2.89s1.23-2.77,4.17-2.78Z"/><path class="cls-4" d="M102.07,63.68a2.58,2.58,0,0,1-2-3.29c.31-1.66,1.57-2,3.06-2,13.36-.19,26.72-.23,40.08,0,1.49,0,2.53.57,2.91,2a2.59,2.59,0,0,1-1.88,3.37c-9.67-.26-19.33-.08-29-.1C110.85,63.56,106.46,63.39,102.07,63.68Z"/><path class="cls-5" d="M93.87,127.7c.77.72.45,1.66.45,2.5q0,35.18,0,70.37c0,.85.29,1.77-.38,2.53,0-10.24-.07-20.49-.08-30.73Q93.84,150,93.87,127.7Z"/><path class="cls-6" d="M102.07,63.68c.53-.51,1.2-.36,1.82-.36h38.53c.62,0,1.29-.16,1.82.34-7.35,0-14.7.12-22,.13C115.49,63.8,108.78,63.72,102.07,63.68Z"/><path class="cls-7" d="M142.35,84.53c-.59.61-1.35.4-2,.4q-17.15,0-34.3,0c-.7,0-1.46.21-2-.42C116.76,84.3,129.56,84.27,142.35,84.53Z"/><path class="cls-8" d="M161.17,102.37c-1.21-8.94-9.73-17-18.82-17.83a3,3,0,0,1-1.42.17H105.38a2.76,2.76,0,0,1-1.41-.19c-9.67-.25-19.83,9.52-20.22,19.79-.27,7.2-.05,14.41-.13,21.61,0,1.43.54,1.74,1.84,1.71,2.8-.06,5.6,0,8.4.07a3.82,3.82,0,0,1,.22,2.11q0,35.7,0,71.4a4.54,4.54,0,0,1-.16,1.89,13.36,13.36,0,0,0,13.25,13q15.24.09,30.49,0a13.3,13.3,0,0,0,13.45-13.34c.12-7.28.09-14.56.09-21.84,0-17,0-33.93-.07-50.89,0-2,.57-2.66,2.55-2.52,2.63.19,5.27.12,7.91.16v-24C161.2,103.33,161.23,102.83,161.17,102.37Zm-15.43,27.35q0,18.61,0,37.23,0,17.05,0,34.11c0,5.78-2,8.34-7.7,9.83a83.87,83.87,0,0,1-9.55.16c-6.94,0-13.88,0-20.82,0-.75,0-1.6.35-2.25-.36a10.06,10.06,0,0,1-6.23-7.14c-.48-.64-.27-1.39-.27-2.09q0-35.83,0-71.66c0-.7-.23-1.44.28-2.08,15,0,29.94-.06,44.91-.15C145.86,127.55,145.74,128.54,145.74,129.72ZM154,122c-10.49-.08-21,0-31.47,0s-20.82,0-31.23,0c-1.81,0-2.32-.47-2.27-2.27.12-4.72,0-9.45,0-14.17,0-7.88,7.4-15.63,15.26-15.74q18.13-.24,36.27,0c8.34.11,15.39,7.7,15.59,16.46.1,4.48-.06,9,.08,13.45C156.35,121.57,155.79,122,154,122Z"/><path class="cls-9" d="M99.19,127.71q0,37.92,0,75.83l-.17.94-.25.06c0-.46-.1-.93-.1-1.39q0-36.49,0-73C98.67,129.34,98.32,128.38,99.19,127.71Z"/><path class="cls-10" d="M105.41,210.68l30.22.15c.8,0,1.6,0,2.39.06-.57.63-1.34.41-2,.41q-14.23,0-28.46,0C106.8,211.29,105.9,211.63,105.41,210.68Z"/><path class="cls-11" d="M139,139.38c0,.08,0,.16,0,.24,0,3.35-1.48,4.42-4.77,3.46-.15,0-.41,0-.45-.12-.83-2.15-.35-4.39-.3-6.57,0-1.38,1.49-.82,2.34-.84C139,135.48,139,135.52,139,139.38Z"/><path class="cls-12" d="M133.35,153.91a3.34,3.34,0,0,1,0-.48c.15-1-.53-2.56.39-2.88,1.35-.48,3-.21,4.48-.18.58,0,.72.53.72,1,0,1.75,0,3.51,0,5.26,0,.76-.36,1.18-1.18,1.15a10.47,10.47,0,0,0-1.91,0c-2,.28-2.84-.45-2.5-2.48A9,9,0,0,0,133.35,153.91Z"/><path class="cls-13" d="M138.94,198.3q0,.24,0,.48c0,3-2,4.35-4.83,3.23a1,1,0,0,1-.72-1.09c0-1.76,0-3.51,0-5.27,0-.84.42-1.13,1.18-1.11a16.22,16.22,0,0,0,1.92,0c1.76-.18,2.8.32,2.46,2.34a8.84,8.84,0,0,0,0,1.44Z"/><path class="cls-14" d="M139,183.5q0,.12,0,.24c0,3.53-1.25,4.46-4.72,3.56-.54-.14-.86-.35-.86-.92,0-1.83,0-3.67,0-5.5,0-.86.47-1.1,1.23-1,.24,0,.48.05.72.05C139,179.92,139,179.92,139,183.5Z"/><path class="cls-14" d="M125.58,198.26a4.8,4.8,0,0,1,0,.72c-.15,1,.55,2.52-.45,2.86a12.24,12.24,0,0,1-4.47.13c-.7,0-.68-.79-.67-1.34,0-1.51.17-3,.08-4.53-.08-1.34.48-1.6,1.68-1.58C126.43,194.6,125.49,194.13,125.58,198.26Z"/><path class="cls-15" d="M138.94,168.73c0,.08,0,.16,0,.24,0,3.37-1.55,4.74-4.68,3.37-2.09-.92-.54-3.39-.85-5.13-.12-.68-.57-1.91.87-2,1.11-.09,2.23,0,3.34,0s1.4.45,1.33,1.44C138.9,167.29,138.94,168,138.94,168.73Z"/><path class="cls-16" d="M120.08,154a5.59,5.59,0,0,1,0-.68c.16-1-.54-2.52.39-2.84a12,12,0,0,1,4.47-.1c.72,0,.62.81.63,1.35q0,1.43,0,2.86c-.07,3.64.52,3-3.12,3.24C118.6,158.12,120.7,155.24,120.08,154Z"/><path class="cls-17" d="M106.74,198.12c0-.08,0-.16,0-.24,0-3.14,1.94-4.73,4.62-3.18,2,1.15.39,3.79.77,5.72.13.65.26,1.56-.84,1.61s-2.4,0-3.6,0c-.74,0-1-.42-1-1.07C106.74,200,106.74,199.08,106.74,198.12Z"/><path class="cls-1" d="M125.57,139.42a3.46,3.46,0,0,1,0,.48c-.13,1,.51,2.58-.35,2.9a9.39,9.39,0,0,1-4.46.19c-1.22-.18-.7-1.48-.63-2.22.17-1.74-.94-3.95.69-5.1,1-.67,2.79-.17,4.22-.06.6,0,.5.72.51,1.17C125.58,137.66,125.57,138.54,125.57,139.42Z"/><path class="cls-8" d="M112.15,139.29c0,.08,0,.16,0,.24,0,3.54-1.14,4.4-4.61,3.57-.95-.23-.8-.83-.8-1.41,0-1.51.08-3,0-4.52s.45-1.69,1.79-1.65C112.12,135.63,112.12,135.56,112.15,139.29Z"/><path class="cls-18" d="M120.09,183.62c0-4.14,0-4.06,4.09-3.74,1.88.15,1.59,1.48,1.32,2.37-.5,1.67,1.71,4.37-1.26,5C120.17,188.05,120.09,187.77,120.09,183.62Z"/><path class="cls-19" d="M106.74,154.32c0-.43,0-.67,0-.91,0-2.89,2.1-4.46,4.64-3,1.84,1.09.5,3.49.73,5.28.08.65.59,1.82-.58,2-1.41.19-3,.43-4.25-.11S107.13,155.3,106.74,154.32Z"/><path class="cls-20" d="M106.74,183.14c.18-.93-.56-2.62.27-3,1.27-.56,2.93-.29,4.42-.32.86,0,.71.7.72,1.21a25.38,25.38,0,0,0,0,3.33c.38,2.41-.47,3.21-2.92,3S106.74,187.29,106.74,183.14Z"/><path class="cls-18" d="M125.57,168.87c0,3.63-1,4.71-4.41,3.46-2.38-.87-.59-3.63-1.05-5.49-.17-.69-.38-1.53.92-1.73C124.92,164.51,125.57,165,125.57,168.87Z"/><path class="cls-21" d="M112.15,169a3.57,3.57,0,0,1,0,.72c-.19.9.52,2.34-.44,2.61a13.53,13.53,0,0,1-4.5.06c-.58,0-.46-.75-.46-1.2,0-1.52.08-3,0-4.54-.08-1.2.42-1.43,1.51-1.47C112.15,165,112.15,164.92,112.15,169Z"/><circle class="cls-22" cx="121.8" cy="121.8" r="117"/><path class="cls-23" d="M121.8,4.8A117,117,0,1,1,25.72,55"/></g></g></svg>