<svg xmlns="http://www.w3.org/2000/svg" viewBox="0 0 171.98 460.01"><defs><style>.cls-1,.cls-4{fill:#539947;}.cls-1,.cls-2,.cls-3,.cls-5{stroke:#539947;stroke-miterlimit:10;}.cls-1{stroke-width:0.59px;}.cls-2,.cls-3,.cls-5{fill:none;}.cls-2{stroke-width:12.82px;}.cls-3{stroke-width:13.07px;}.cls-5{stroke-width:2.46px;}</style></defs><title>lampLED_01_2</title><g id="Capa_2" data-name="Capa 2"><g id="Capa_1-2" data-name="Capa 1"><polygon class="cls-1" points="81.63 0.29 81.54 64.64 57.49 88.7 119.31 88.7 95.26 64.64 95.26 0.29 81.63 0.29"/><rect class="cls-1" x="33.49" y="96.67" width="104.99" height="11.65" rx="5.83" ry="5.83"/><rect class="cls-1" x="33.49" y="116.29" width="104.99" height="11.65" rx="5.83" ry="5.83"/><rect class="cls-1" x="33.49" y="135.91" width="104.99" height="11.65" rx="5.83" ry="5.83"/><path class="cls-2" d="M69.08,161.87H102.9a62.67,62.67,0,0,1,62.67,62.67V246.1a0,0,0,0,1,0,0H6.41a0,0,0,0,1,0,0V224.54A62.67,62.67,0,0,1,69.08,161.87Z"/><path class="cls-3" d="M29.44,246.1H147.36a0,0,0,0,1,0,0V413.81a39.67,39.67,0,0,1-39.67,39.67H69.11a39.67,39.67,0,0,1-39.67-39.67V246.1A0,0,0,0,1,29.44,246.1Z"/><rect class="cls-4" x="51.88" y="272.09" width="11.76" height="16.56"/><rect class="cls-4" x="82.37" y="272.09" width="11.76" height="16.56"/><rect class="cls-4" x="113.16" y="272.09" width="11.76" height="16.56"/><rect class="cls-4" x="51.88" y="306.08" width="11.76" height="16.56"/><rect class="cls-4" x="82.37" y="306.08" width="11.76" height="16.56"/><rect class="cls-4" x="113.16" y="306.08" width="11.76" height="16.56"/><rect class="cls-4" x="51.88" y="340.06" width="11.76" height="16.56"/><rect class="cls-4" x="82.37" y="340.06" width="11.76" height="16.56"/><rect class="cls-4" x="113.16" y="340.06" width="11.76" height="16.56"/><rect class="cls-4" x="51.88" y="374.04" width="11.76" height="16.56"/><rect class="cls-4" x="82.37" y="374.04" width="11.76" height="16.56"/><rect class="cls-4" x="113.16" y="374.04" width="11.76" height="16.56"/><rect class="cls-4" x="51.88" y="408.02" width="11.76" height="16.56"/><rect class="cls-4" x="82.37" y="408.02" width="11.76" height="16.56"/><rect class="cls-4" x="113.16" y="408.02" width="11.76" height="16.56"/><rect class="cls-5" x="54.29" y="184.07" width="67.5" height="41.48"/><rect class="cls-4" x="60.62" y="189.66" width="18.46" height="11.34"/><rect class="cls-4" x="60.62" y="216.76" width="18.46" height="2.87"/><rect class="cls-4" x="100.03" y="209.34" width="12.8" height="7.87" transform="translate(319.7 106.84) rotate(90)"/></g></g></svg>