<svg xmlns="http://www.w3.org/2000/svg" viewBox="0 0 460.01 171.98"><defs><style>.cls-1,.cls-4{fill:#539947;}.cls-1,.cls-2,.cls-3,.cls-5{stroke:#539947;stroke-miterlimit:10;}.cls-1{stroke-width:0.59px;}.cls-2,.cls-3,.cls-5{fill:none;}.cls-2{stroke-width:12.82px;}.cls-3{stroke-width:13.07px;}.cls-5{stroke-width:2.46px;}</style></defs><title>lampLED_02</title><g id="Capa_2" data-name="Capa 2"><g id="Capa_1-2" data-name="Capa 1"><polygon class="cls-1" points="0.29 90.35 64.64 90.44 88.7 114.49 88.7 52.66 64.64 76.72 0.29 76.72 0.29 90.35"/><rect class="cls-1" x="50" y="80.16" width="104.99" height="11.65" rx="5.83" ry="5.83" transform="translate(16.5 188.48) rotate(-90)"/><rect class="cls-1" x="69.62" y="80.16" width="104.99" height="11.65" rx="5.83" ry="5.83" transform="translate(36.13 208.11) rotate(-90)"/><rect class="cls-1" x="89.24" y="80.16" width="104.99" height="11.65" rx="5.83" ry="5.83" transform="translate(55.75 227.73) rotate(-90)"/><path class="cls-2" d="M187.07,43.88H220.9a62.67,62.67,0,0,1,62.67,62.67V128.1a0,0,0,0,1,0,0H124.4a0,0,0,0,1,0,0V106.54A62.67,62.67,0,0,1,187.07,43.88Z" transform="translate(117.99 289.97) rotate(-90)"/><path class="cls-3" d="M290.83-20.11H408.75a0,0,0,0,1,0,0V147.6a39.67,39.67,0,0,1-39.67,39.67H330.49a39.67,39.67,0,0,1-39.67-39.67V-20.11A0,0,0,0,1,290.83-20.11Z" transform="translate(266.21 433.37) rotate(-90)"/><rect class="cls-4" x="274.49" y="105.94" width="11.76" height="16.56" transform="translate(166.15 394.59) rotate(-90)"/><rect class="cls-4" x="274.49" y="75.45" width="11.76" height="16.56" transform="translate(196.65 364.1) rotate(-90)"/><rect class="cls-4" x="274.49" y="44.66" width="11.76" height="16.56" transform="translate(227.43 333.31) rotate(-90)"/><rect class="cls-4" x="308.47" y="105.94" width="11.76" height="16.56" transform="translate(200.13 428.57) rotate(-90)"/><rect class="cls-4" x="308.47" y="75.45" width="11.76" height="16.56" transform="translate(230.63 398.08) rotate(-90)"/><rect class="cls-4" x="308.47" y="44.66" width="11.76" height="16.56" transform="translate(261.42 367.29) rotate(-90)"/><rect class="cls-4" x="342.45" y="105.94" width="11.76" height="16.56" transform="translate(234.11 462.56) rotate(-90)"/><rect class="cls-4" x="342.45" y="75.45" width="11.76" height="16.56" transform="translate(264.61 432.06) rotate(-90)"/><rect class="cls-4" x="342.45" y="44.66" width="11.76" height="16.56" transform="translate(295.4 401.27) rotate(-90)"/><rect class="cls-4" x="376.43" y="105.94" width="11.76" height="16.56" transform="translate(268.1 496.54) rotate(-90)"/><rect class="cls-4" x="376.43" y="75.45" width="11.76" height="16.56" transform="translate(298.59 466.04) rotate(-90)"/><rect class="cls-4" x="376.43" y="44.66" width="11.76" height="16.56" transform="translate(329.38 435.25) rotate(-90)"/><rect class="cls-4" x="410.42" y="105.94" width="11.76" height="16.56" transform="translate(302.08 530.52) rotate(-90)"/><rect class="cls-4" x="410.42" y="75.45" width="11.76" height="16.56" transform="translate(332.57 500.02) rotate(-90)"/><rect class="cls-4" x="410.42" y="44.66" width="11.76" height="16.56" transform="translate(363.36 469.24) rotate(-90)"/><rect class="cls-5" x="171.06" y="63.2" width="67.5" height="41.48" transform="translate(120.87 288.75) rotate(-90)"/><rect class="cls-4" x="186.1" y="96.46" width="18.46" height="11.34" transform="translate(93.2 297.46) rotate(-90)"/><rect class="cls-4" x="208.97" y="100.69" width="18.46" height="2.87" transform="translate(116.07 320.33) rotate(-90)"/><rect class="cls-4" x="206.87" y="61.61" width="12.8" height="7.87"/></g></g></svg>