<svg xmlns="http://www.w3.org/2000/svg" viewBox="0 0 129.19 118.49"><defs><style>.cls-1,.cls-2{fill:none;stroke:#fff;stroke-width:5.95px;}.cls-1{stroke-linejoin:round;}.cls-2{stroke-linecap:round;stroke-miterlimit:10;}.cls-3{fill:#fff;}</style></defs><title>largaVida_1</title><g id="Capa_2" data-name="Capa 2"><g id="Capa_1-2" data-name="Capa 1"><polyline class="cls-1" points="12.36 47.1 12.36 115.51 115.1 115.51 115.1 47.1"/><polyline class="cls-2" points="2.98 55.5 63.73 3.88 126.21 55.5"/><path class="cls-3" d="M45.45,85.61V97a2.33,2.33,0,0,0,2.33,2.33H83.14a2.33,2.33,0,0,0,1-.23l7.21-3.47c5-2.38,5-6.28,0-8.66l-7.21-3.47a2.33,2.33,0,0,0-1-.23H47.79A2.33,2.33,0,0,0,45.45,85.61Z"/><path class="cls-3" d="M45.45,64V75.37a2.18,2.18,0,0,0,2,2.33h30a1.73,1.73,0,0,0,.86-.23L84.35,74c4.2-2.38,4.2-6.28,0-8.66l-6.11-3.47a1.73,1.73,0,0,0-.86-.23h-30A2.18,2.18,0,0,0,45.45,64Z"/><path class="cls-3" d="M45.45,41.78V53.17c0,1.29.63,2.33,1.41,2.33H68.31a1,1,0,0,0,.61-.23l4.37-3.47a5.29,5.29,0,0,0,0-8.66l-4.37-3.47a1,1,0,0,0-.61-.23H46.87C46.09,39.45,45.45,40.49,45.45,41.78Z"/></g></g></svg>