<?xml version="1.0" encoding="iso-8859-1"?>
<!-- Generator: Adobe Illustrator 16.0.0, SVG Export Plug-In . SVG Version: 6.00 Build 0)  -->
<!DOCTYPE svg PUBLIC "-//W3C//DTD SVG 1.1//EN" "http://www.w3.org/Graphics/SVG/1.1/DTD/svg11.dtd">
<svg version="1.1" id="Capa_1" xmlns="http://www.w3.org/2000/svg" xmlns:xlink="http://www.w3.org/1999/xlink" x="0px" y="0px"
	 width="124.452px" height="334.201px" viewBox="0 0 124.452 334.201" style="enable-background:new 0 0 124.452 334.201;"
	 xml:space="preserve">
<g>
	<g>
		<path style="fill:#549947;" d="M24.393,36.469V2.203h7.266v28.266h13.898v6H24.393z"/>
		<path style="fill:#549947;" d="M62.807,36.938c-4.219,0-7.516-1.164-9.891-3.492s-3.563-5.625-3.563-9.891
			c0-4.391,1.098-7.785,3.293-10.184s5.23-3.598,9.105-3.598c3.703,0,6.586,1.055,8.648,3.164s3.094,5.023,3.094,8.742v3.469H56.596
			c0.078,2.031,0.68,3.617,1.805,4.758s2.703,1.711,4.734,1.711c1.578,0,3.07-0.164,4.477-0.492s2.875-0.852,4.406-1.57v5.531
			c-1.25,0.625-2.586,1.09-4.008,1.395S64.854,36.938,62.807,36.938z M61.799,14.859c-1.516,0-2.703,0.48-3.563,1.441
			s-1.352,2.324-1.477,4.09h10.031c-0.031-1.766-0.492-3.129-1.383-4.09S63.314,14.859,61.799,14.859z"/>
		<path style="fill:#549947;" d="M87.604,36.938c-3.078,0-5.496-1.195-7.254-3.586s-2.637-5.703-2.637-9.938
			c0-4.297,0.895-7.645,2.684-10.043s4.254-3.598,7.395-3.598c3.297,0,5.813,1.281,7.547,3.844h0.234
			c-0.359-1.953-0.539-3.695-0.539-5.227V0h7.172v36.469h-5.484l-1.383-3.398h-0.305C93.408,35.648,90.932,36.938,87.604,36.938z
			 M90.111,31.242c1.828,0,3.168-0.531,4.02-1.594s1.316-2.867,1.395-5.414v-0.773c0-2.813-0.434-4.828-1.301-6.047
			s-2.277-1.828-4.23-1.828c-1.594,0-2.832,0.676-3.715,2.027s-1.324,3.316-1.324,5.895s0.445,4.512,1.336,5.801
			S88.455,31.242,90.111,31.242z"/>
	</g>
	<rect y="74.411" style="fill:#549947;" width="20.041" height="28.206"/>
	<rect x="51.958" y="74.411" style="fill:#549947;" width="20.041" height="28.206"/>
	<rect x="104.411" y="74.411" style="fill:#549947;" width="20.041" height="28.206"/>
	<rect y="132.307" style="fill:#549947;" width="20.041" height="28.206"/>
	<rect x="51.958" y="132.307" style="fill:#549947;" width="20.041" height="28.206"/>
	<rect x="104.411" y="132.307" style="fill:#549947;" width="20.041" height="28.206"/>
	<rect y="190.203" style="fill:#549947;" width="20.041" height="28.205"/>
	<rect x="51.958" y="190.203" style="fill:#549947;" width="20.041" height="28.205"/>
	<rect x="104.411" y="190.203" style="fill:#549947;" width="20.041" height="28.205"/>
	<rect y="248.099" style="fill:#549947;" width="20.041" height="28.206"/>
	<rect x="51.958" y="248.099" style="fill:#549947;" width="20.041" height="28.206"/>
	<rect x="104.411" y="248.099" style="fill:#549947;" width="20.041" height="28.206"/>
	<rect y="305.996" style="fill:#549947;" width="20.041" height="28.205"/>
	<rect x="51.958" y="305.996" style="fill:#549947;" width="20.041" height="28.205"/>
	<rect x="104.411" y="305.996" style="fill:#549947;" width="20.041" height="28.205"/>
</g>
</svg>
