<svg xmlns="http://www.w3.org/2000/svg" viewBox="0 0 256.75 43.75"><defs><style>.cls-1{fill:#539947;}</style></defs><title>logo</title><g id="Capa_2" data-name="Capa 2"><g id="Capa_1-2" data-name="Capa 1"><path class="cls-1" d="M20.47,25.62l.78-.56a5.16,5.16,0,0,1,2.08-.87q1.34,0,2.9,2.42a5,5,0,0,1,1,2.42,2.1,2.1,0,0,1-.58,1.51,6.81,6.81,0,0,1-1.36,1.08l-1.49.91a15.73,15.73,0,0,1-2.92,1.13,14.24,14.24,0,0,1-4.26.69,16.59,16.59,0,0,1-4.15-.54A17.56,17.56,0,0,1,8.07,32a17.86,17.86,0,0,1-4-3.12,14.32,14.32,0,0,1-2.92-4.72A16.73,16.73,0,0,1,0,17.91a16,16,0,0,1,1.13-6.12A14,14,0,0,1,4,7.24a16.47,16.47,0,0,1,4-3A17.51,17.51,0,0,1,16.53,1.9a14.39,14.39,0,0,1,4.13.63A14.54,14.54,0,0,1,23.84,3.8l1,.61q.78.48,1.21.78a2.62,2.62,0,0,1,1.13,2.06,4.14,4.14,0,0,1-.91,2.4Q24.62,12,23.28,12a4.57,4.57,0,0,1-2.21-1,7.48,7.48,0,0,0-4.85-1.47,9.45,9.45,0,0,0-5.54,1.95,7.28,7.28,0,0,0-2.16,2.68,8.63,8.63,0,0,0-.87,3.92A8.63,8.63,0,0,0,8.53,22a7.46,7.46,0,0,0,2.21,2.73,9.26,9.26,0,0,0,5.5,1.9,9,9,0,0,0,2.53-.35A6.58,6.58,0,0,0,20.47,25.62Z"/><path class="cls-1" d="M42.67,11.2a9.18,9.18,0,0,1,7.21,3.29,11.79,11.79,0,0,1,2.88,8v7.62a12.64,12.64,0,0,1-.06,1.49,3.48,3.48,0,0,1-.41,1.15q-.56,1.13-3.33,1.13T45.66,32.8a3.44,3.44,0,0,1-.41-1.17,13.61,13.61,0,0,1-.06-1.56V22.5a3.74,3.74,0,0,0-1-2.77,3.43,3.43,0,0,0-2.53-1,4.22,4.22,0,0,0-2.7.93,3.32,3.32,0,0,0-1.34,2.1v8.4a12.5,12.5,0,0,1-.06,1.49,3.47,3.47,0,0,1-.41,1.15q-.56,1.13-3.33,1.13t-3.33-1.17a4,4,0,0,1-.37-1.13A12.56,12.56,0,0,1,30,30.12V4.24a12.65,12.65,0,0,1,.06-1.49,3.54,3.54,0,0,1,.37-1.1Q31.07.47,33.84.47t3.29,1.17a3.47,3.47,0,0,1,.41,1.15,12.51,12.51,0,0,1,.06,1.49v9.56A6.4,6.4,0,0,1,42.67,11.2Z"/><path class="cls-1" d="M71,13.54q.26-2.42,3.42-2.42a9,9,0,0,1,2.51.26,1.81,1.81,0,0,1,1.15.91,3.71,3.71,0,0,1,.39,1.15,12.63,12.63,0,0,1,.06,1.49V30.07a12.64,12.64,0,0,1-.06,1.49,4,4,0,0,1-.37,1.15q-.61,1.13-3,1.13A5.84,5.84,0,0,1,72,33.25a2.33,2.33,0,0,1-.93-1.71q-1.6,2.29-5.34,2.29a9.44,9.44,0,0,1-6.95-3.42,11.39,11.39,0,0,1,0-15.86,9.63,9.63,0,0,1,7.08-3.4,6.74,6.74,0,0,1,2.68.52,6,6,0,0,1,1.69,1A6.05,6.05,0,0,1,71,13.54Zm-7.88,9a3.59,3.59,0,0,0,1.13,2.58A3.68,3.68,0,0,0,67,26.26a3.45,3.45,0,0,0,2.66-1.17,3.75,3.75,0,0,0,1.06-2.58,4,4,0,0,0-1-2.62A3.38,3.38,0,0,0,67,18.69,3.51,3.51,0,0,0,64.2,19.9,3.93,3.93,0,0,0,63.14,22.54Z"/><path class="cls-1" d="M94.69,11.12a9.15,9.15,0,0,1,7.21,3.31,11.88,11.88,0,0,1,2.88,8.07v7.62a12.46,12.46,0,0,1-.07,1.49,3.54,3.54,0,0,1-.37,1.1q-.61,1.17-3.38,1.17-3.07,0-3.55-1.6a7.07,7.07,0,0,1-.26-2.21V22.46a3.48,3.48,0,0,0-3.74-3.77,3.79,3.79,0,0,0-2.77,1,3.64,3.64,0,0,0-1.06,2.73v7.66a12.49,12.49,0,0,1-.06,1.49,3.08,3.08,0,0,1-.41,1.1q-.56,1.17-3.33,1.17t-3.33-1.17a4,4,0,0,1-.37-1.15A12.64,12.64,0,0,1,82,30.07V14.75a12.15,12.15,0,0,1,.06-1.45,3.08,3.08,0,0,1,.41-1.1q.61-1.08,3.33-1.08t3.25,1a3.45,3.45,0,0,1,.43,1.77,4.39,4.39,0,0,1,.78-.87,7.57,7.57,0,0,1,1.17-.91A5.67,5.67,0,0,1,94.69,11.12Z"/><path class="cls-1" d="M122.69,31.07q-1.65,2.16-5.24,2.16a9.22,9.22,0,0,1-6.73-3.31,11.08,11.08,0,0,1,0-15.47,9.42,9.42,0,0,1,6.92-3.33,6.52,6.52,0,0,1,2.68.54,5.87,5.87,0,0,1,1.67,1,5.67,5.67,0,0,1,.71.84,2.64,2.64,0,0,1,.89-1.84,3.83,3.83,0,0,1,2.45-.63,8.48,8.48,0,0,1,2.47.26,1.82,1.82,0,0,1,1.1.89,3.5,3.5,0,0,1,.39,1.1,11.92,11.92,0,0,1,.07,1.47V32.67a10.18,10.18,0,0,1-3.46,8,11.48,11.48,0,0,1-7.79,3.05,13.1,13.1,0,0,1-6.27-1.6q-3-1.6-3-2.9a4.11,4.11,0,0,1,1.3-3A10.79,10.79,0,0,1,112.15,35a1.7,1.7,0,0,1,1.06-.35,2,2,0,0,1,1.26.52,7.22,7.22,0,0,0,4.5,1.6,3.28,3.28,0,0,0,2.68-1.3,4.83,4.83,0,0,0,1-3.12ZM115,22.22a3.53,3.53,0,0,0,1.1,2.53,3.61,3.61,0,0,0,2.68,1.13,3.38,3.38,0,0,0,2.62-1.15,3.66,3.66,0,0,0,1-2.51,3.91,3.91,0,0,0-1-2.55,3.32,3.32,0,0,0-2.68-1.19A3.47,3.47,0,0,0,116,19.64,3.79,3.79,0,0,0,115,22.22Z"/><path class="cls-1" d="M155.53,19.79a5.26,5.26,0,0,1-1.32,3.94A4.12,4.12,0,0,1,151.29,25H141a2.37,2.37,0,0,0,1.43,2,5.68,5.68,0,0,0,2.86.82,11.91,11.91,0,0,0,3.94-.52l.48-.17a4.36,4.36,0,0,1,1.73-.48q1.38,0,2.38,1.95a4.79,4.79,0,0,1,.56,2q0,3.85-9.22,3.85a13.91,13.91,0,0,1-5.69-1.1,9.66,9.66,0,0,1-3.87-2.92,12.44,12.44,0,0,1-2.73-7.83,11.31,11.31,0,0,1,3.53-8.72,12.46,12.46,0,0,1,8.81-3.27q6,0,8.83,4.24A8.8,8.8,0,0,1,155.53,19.79Zm-9.13,1.28q1.64,0,1.64-1.38a2,2,0,0,0-.76-1.6,3.39,3.39,0,0,0-2.16-.61,4.38,4.38,0,0,0-2.79,1.15,3.22,3.22,0,0,0-1.38,2.45Z"/><path class="cls-1" d="M166,27.52h11.77a4.93,4.93,0,0,1,2.08.32,1.64,1.64,0,0,1,.87,1,6.34,6.34,0,0,1,.22,1.84,6.33,6.33,0,0,1-.22,1.84,1.49,1.49,0,0,1-.74,1,4.87,4.87,0,0,1-2.25.43H162.15q-3,0-3.55-1.64a6.8,6.8,0,0,1-.26-2.21V6a12.65,12.65,0,0,1,.06-1.49,3.47,3.47,0,0,1,.41-1.15q.61-1.17,3.38-1.17,3,0,3.59,1.6A8.63,8.63,0,0,1,166,6.05Z"/><path class="cls-1" d="M191.41,26.26h13.33a12.51,12.51,0,0,1,1.49.06,3.47,3.47,0,0,1,1.15.41q1.17.61,1.17,3.38,0,3-1.6,3.55a7.24,7.24,0,0,1-2.25.26H187.55q-3,0-3.55-1.64a6.8,6.8,0,0,1-.26-2.21V6a4.19,4.19,0,0,1,.82-3,4.52,4.52,0,0,1,3.12-.8h17.05a12.65,12.65,0,0,1,1.49.06,3.47,3.47,0,0,1,1.15.41q1.17.61,1.17,3.38,0,3-1.6,3.55a7.24,7.24,0,0,1-2.25.26H191.41v4.37H200a12.51,12.51,0,0,1,1.49.06,3.47,3.47,0,0,1,1.15.41q1.17.61,1.17,3.38,0,3-1.64,3.55a7.24,7.24,0,0,1-2.25.26h-8.48Z"/><path class="cls-1" d="M215.21,2.16l8,0a15.54,15.54,0,0,1,11,4.52A14.74,14.74,0,0,1,239,17.85a15.54,15.54,0,0,1-4.65,11.32,15.25,15.25,0,0,1-11.27,4.72h-7.92q-2.64,0-3.29-1.08a5.76,5.76,0,0,1-.52-2.77V6a12.57,12.57,0,0,1,.06-1.51,3.49,3.49,0,0,1,.41-1.13Q212.44,2.16,215.21,2.16Zm13.63,21.75a7.58,7.58,0,0,0,2.51-5.82,7.82,7.82,0,0,0-2.45-5.86,8,8,0,0,0-5.73-2.36H219V26.22h4.2A8.09,8.09,0,0,0,228.84,23.91Z"/><rect class="cls-1" x="242.72" y="16.04" width="14.03" height="4.15" rx="1.62" ry="1.62"/><rect class="cls-1" x="239.97" y="1.82" width="14.03" height="4.15" rx="1.62" ry="1.62" transform="translate(13.68 85.04) rotate(-20.08)"/><rect class="cls-1" x="239.97" y="30.21" width="14.03" height="4.15" rx="1.62" ry="1.62" transform="translate(36.6 -101.06) rotate(24.92)"/></g></g></svg>