<svg xmlns="http://www.w3.org/2000/svg" viewBox="0 0 130.91 111.25"><defs><style>.cls-1,.cls-3{fill:none;stroke:#fff;stroke-miterlimit:10;}.cls-1{stroke-width:3.84px;}.cls-2{fill:#fff;}.cls-3{stroke-linecap:round;stroke-width:6.68px;}</style></defs><title>mayorResist</title><g id="Capa_2" data-name="Capa 2"><g id="Capa_1-2" data-name="Capa 1"><path class="cls-1" d="M89.24,48.55c0,17.1-10.26,34.56-22.92,34.56S43.4,65.65,43.4,48.55,53.67,24.92,66.32,24.92,89.24,31.46,89.24,48.55Z"/><rect class="cls-2" x="53.48" y="89.12" width="25.68" height="5.52" rx="1.08" ry="1.08"/><rect class="cls-2" x="53.48" y="97.18" width="25.68" height="5.52" rx="1.08" ry="1.08"/><path class="cls-2" d="M67.7,110.82a2.39,2.39,0,0,1-2.75,0L63,109l-2.67-2.54c-.28-.27.07-.6.63-.6h10.7c.56,0,.91.33.63.6L69.63,109Z"/><path class="cls-3" d="M3.34,23.73a119.41,119.41,0,0,1,124.23.74"/><rect class="cls-2" x="7.05" y="1.3" width="22.07" height="34.3" rx="4.96" ry="4.96" transform="translate(-4.93 6.7) rotate(-18.53)"/><rect class="cls-2" x="101.11" y="1.81" width="22.07" height="34.3" rx="4.96" ry="4.96" transform="translate(17.87 -44.66) rotate(24.42)"/></g></g></svg>