<svg xmlns="http://www.w3.org/2000/svg" viewBox="0 0 111.63 111.63"><defs><style>.cls-1{fill:#fff;}</style></defs><title>noCalor</title><g id="Capa_2" data-name="Capa 2"><g id="Capa_1-2" data-name="Capa 1"><path class="cls-1" d="M58.9,24.14a2.71,2.71,0,0,1,2.7,2.7v46a7.14,7.14,0,1,1-5.41.31V26.84a2.71,2.71,0,0,1,2.7-2.7m0-4.64a7.35,7.35,0,0,0-7.34,7.34V70.69a11.65,11.65,0,0,0-4.06,8.88,11.78,11.78,0,1,0,18.73-9.48V26.84a7.35,7.35,0,0,0-7.34-7.34Z"/><rect class="cls-1" x="33.6" y="25.49" width="11.97" height="8.3" rx="1.79" ry="1.79"/><rect class="cls-1" x="33.6" y="40.94" width="11.97" height="8.3" rx="1.79" ry="1.79"/><rect class="cls-1" x="33.6" y="55.43" width="11.97" height="8.3" rx="1.79" ry="1.79"/><path class="cls-1" d="M55.81,0a55.81,55.81,0,1,0,55.81,55.81A55.81,55.81,0,0,0,55.81,0Zm0,104.48a48.67,48.67,0,1,1,48.67-48.67A48.67,48.67,0,0,1,55.81,104.48Z"/><rect class="cls-1" x="2.11" y="50.75" width="108.37" height="8.5" transform="translate(-22.4 53.57) rotate(-43.29)"/></g></g></svg>