<svg xmlns="http://www.w3.org/2000/svg" viewBox="0 0 212.12 104.15"><defs><style>.cls-1{fill:#8cc53b;}.cls-2{fill:#8ec53c;}.cls-3{fill:#8cc63c;}.cls-4{fill:#8dc63d;}.cls-5{fill:#7ab513;}.cls-6{fill:#7cba10;}.cls-7{fill:#80b81a;}.cls-8{fill:#81b71a;}.cls-9{fill:#84b510;}.cls-10{fill:#8fc73f;}.cls-11{fill:#90c63f;}.cls-12{fill:#8ac437;}.cls-13{fill:#8fc640;}.cls-14{fill:#8cc53a;}.cls-15{fill:#8dc53b;}.cls-16{fill:#8cc43b;}.cls-17{fill:#8cc43c;}.cls-18{fill:#8bc43a;}.cls-19{fill:#8dc43d;}.cls-20{fill:#8bc339;}.cls-21{fill:#8ac235;}.cls-22{font-size:64.91px;fill:#539947;font-family:OpenSans-Bold, Open Sans;font-weight:700;}.cls-23{fill:#fdc804;}.cls-24{fill:#fbc606;}.cls-25{fill:#fbc708;}.cls-26{fill:#fdc603;}</style></defs><title>plan2</title><g id="Capa_2" data-name="Capa 2"><g id="Capa_1-2" data-name="Capa 1"><path class="cls-1" d="M198.73,11.95c0,3.22,0,6.44,0,9.66a1.64,1.64,0,0,0,.7,1.37c1.23,1.14,2.3,2.45,3.33,3.57H192.66c-.11-.25.15-.34.28-.47,1.25-1.13,2.23-2.54,3.71-3.41.4-.23.25-.58.25-.88,0-3.28,0-6.56,0-9.85Z"/><path class="cls-2" d="M197.57,33.12h-7.22c-1,0-1.45-.33-1.42-1.08s.66-1,1.38-1h14.61c.76,0,1.31.23,1.39,1.06.06.65-.49,1.07-1.36,1.07Z"/><path class="cls-3" d="M197.56,34.23h7.32c.95,0,1.49.41,1.47,1.08s-.57,1.05-1.51,1.05H190.47c-1.06,0-1.54-.34-1.53-1.09s.46-1,1.57-1Z"/><path class="cls-4" d="M189.71,29.8a1,1,0,0,1-.75-1.24c.12-.63.59-.76,1.15-.77,5-.07,10.06-.09,15.08,0a1,1,0,0,1,1.09.73,1,1,0,0,1-.71,1.27c-3.64-.1-7.28,0-10.91,0C193,29.76,191.36,29.7,189.71,29.8Z"/><path class="cls-5" d="M186.62,53.9c.29.27.17.62.17.94q0,13.24,0,26.48c0,.32.11.67-.14,1,0-3.86,0-7.71,0-11.57Q186.61,62.31,186.62,53.9Z"/><path class="cls-6" d="M189.71,29.8c.2-.19.45-.13.68-.13h14.5c.23,0,.48-.06.69.13-2.77,0-5.53,0-8.3,0C194.76,29.85,192.23,29.82,189.71,29.8Z"/><path class="cls-7" d="M204.87,37.65c-.22.23-.51.15-.77.15H191.19c-.26,0-.55.08-.77-.16C195.24,37.56,200.05,37.55,204.87,37.65Z"/><path class="cls-1" d="M212,44.36a8.26,8.26,0,0,0-7.08-6.71,1.14,1.14,0,0,1-.53.07H191a1,1,0,0,1-.53-.07c-3.64-.1-7.46,3.58-7.61,7.45-.1,2.71,0,5.42,0,8.13,0,.54.2.65.69.64,1.05,0,2.11,0,3.16,0a1.44,1.44,0,0,1,.08.79q0,13.44,0,26.87a1.71,1.71,0,0,1-.06.71,5,5,0,0,0,5,4.91q5.74,0,11.47,0a5,5,0,0,0,5.06-5c0-2.74,0-5.48,0-8.22,0-6.38,0-12.77,0-19.15,0-.76.21-1,1-.95,1,.07,2,0,3,.06v-9C212,44.73,212,44.54,212,44.36Zm-5.81,10.3q0,7,0,14,0,6.42,0,12.84c0,2.17-.76,3.14-2.9,3.7a31.69,31.69,0,0,1-3.59.06c-2.61,0-5.22,0-7.84,0-.28,0-.6.13-.85-.14a3.79,3.79,0,0,1-2.34-2.69c-.18-.24-.1-.52-.1-.79q0-13.49,0-27c0-.26-.09-.54.1-.78,5.63,0,11.27,0,16.9-.06C206.19,53.84,206.14,54.22,206.14,54.66Zm3.11-2.9c-3.95,0-7.9,0-11.84,0s-7.84,0-11.75,0c-.68,0-.87-.18-.85-.85,0-1.78,0-3.56,0-5.33a6.25,6.25,0,0,1,5.75-5.92q6.82-.09,13.65,0a6.28,6.28,0,0,1,5.87,6.2c0,1.69,0,3.38,0,5.06C210.14,51.59,209.93,51.77,209.26,51.76Z"/><path class="cls-8" d="M188.63,53.9q0,14.27,0,28.54l-.06.35-.1,0c0-.17,0-.35,0-.52q0-13.73,0-27.47C188.43,54.52,188.3,54.15,188.63,53.9Z"/><path class="cls-9" d="M191,85.13l11.37.06.9,0c-.22.24-.5.15-.76.15H191.77C191.49,85.36,191.15,85.49,191,85.13Z"/><path class="cls-10" d="M203.59,58.29v.09c0,1.26-.56,1.67-1.8,1.3-.06,0-.16,0-.17,0a6.22,6.22,0,0,1-.11-2.47c0-.52.56-.31.88-.31C203.59,56.83,203.59,56.84,203.59,58.29Z"/><path class="cls-11" d="M201.48,63.76a1.26,1.26,0,0,1,0-.18c.06-.37-.2-1,.15-1.08a5,5,0,0,1,1.69-.07c.22,0,.27.2.27.39,0,.66,0,1.32,0,2,0,.29-.14.44-.44.43a3.94,3.94,0,0,0-.72,0c-.74.11-1.07-.17-.94-.93A3.4,3.4,0,0,0,201.48,63.76Z"/><path class="cls-12" d="M203.59,80.47q0,.09,0,.18a1.2,1.2,0,0,1-1.82,1.22.39.39,0,0,1-.27-.41c0-.66,0-1.32,0-2,0-.31.16-.42.45-.42a6.1,6.1,0,0,0,.72,0c.66-.07,1.05.12.93.88a3.33,3.33,0,0,0,0,.54Z"/><path class="cls-13" d="M203.59,74.9s0,.06,0,.09c0,1.33-.47,1.68-1.78,1.34-.2-.05-.32-.13-.32-.35,0-.69,0-1.38,0-2.07,0-.32.18-.41.46-.39l.27,0C203.59,73.55,203.59,73.55,203.59,74.9Z"/><path class="cls-13" d="M198.56,80.46a1.81,1.81,0,0,1,0,.27c-.06.37.21.95-.17,1.08a4.61,4.61,0,0,1-1.68.05c-.26,0-.26-.3-.25-.5,0-.57.06-1.14,0-1.71s.18-.6.63-.59C198.88,79.08,198.53,78.9,198.56,80.46Z"/><path class="cls-14" d="M203.59,69.34s0,.06,0,.09c0,1.27-.58,1.78-1.76,1.27-.79-.34-.21-1.28-.32-1.93,0-.26-.21-.72.33-.76s.84,0,1.26,0,.53.17.5.54S203.59,69.07,203.59,69.34Z"/><path class="cls-15" d="M196.49,63.8a2.1,2.1,0,0,1,0-.25c.06-.37-.2-.95.15-1.07a4.53,4.53,0,0,1,1.68,0c.27,0,.23.31.24.51q0,.54,0,1.08c0,1.37.19,1.13-1.17,1.22S196.72,64.27,196.49,63.8Z"/><path class="cls-16" d="M191.47,80.4v-.09c0-1.18.73-1.78,1.74-1.2.75.43.15,1.43.29,2.15,0,.25.1.59-.32.61s-.9,0-1.35,0c-.28,0-.36-.16-.36-.4S191.47,80.76,191.47,80.4Z"/><path class="cls-1" d="M198.55,58.31a1.3,1.3,0,0,1,0,.18c-.05.38.19,1-.13,1.09a3.53,3.53,0,0,1-1.68.07c-.46-.07-.27-.56-.24-.83.07-.66-.36-1.49.26-1.92.36-.25,1.05-.06,1.59,0,.23,0,.19.27.19.44C198.56,57.65,198.55,58,198.55,58.31Z"/><path class="cls-17" d="M193.5,58.26s0,.06,0,.09c0,1.33-.43,1.65-1.73,1.34-.36-.09-.3-.31-.3-.53,0-.57,0-1.14,0-1.7s.17-.64.67-.62C193.49,56.88,193.49,56.86,193.5,58.26Z"/><path class="cls-18" d="M196.49,74.94c0-1.56,0-1.53,1.54-1.41.71.05.6.56.5.89-.19.63.64,1.64-.47,1.87C196.52,76.61,196.49,76.51,196.49,74.94Z"/><path class="cls-19" d="M191.47,63.92c0-.16,0-.25,0-.34,0-1.09.79-1.68,1.75-1.11.69.41.19,1.31.28,2,0,.24.22.69-.22.75a3.15,3.15,0,0,1-1.6,0C191.18,64.94,191.61,64.29,191.47,63.92Z"/><path class="cls-20" d="M191.47,74.77c.07-.35-.21-1,.1-1.12a4.53,4.53,0,0,1,1.67-.12c.32,0,.27.26.27.46a9.55,9.55,0,0,0,0,1.25c.14.91-.18,1.21-1.1,1.12S191.47,76.33,191.47,74.77Z"/><path class="cls-18" d="M198.55,69.39c0,1.37-.38,1.77-1.66,1.3-.89-.33-.22-1.37-.4-2.07-.06-.26-.14-.58.35-.65C198.31,67.75,198.55,67.94,198.55,69.39Z"/><path class="cls-21" d="M193.5,69.43a1.34,1.34,0,0,1,0,.27c-.07.34.2.88-.17,1a5.09,5.09,0,0,1-1.69,0c-.22,0-.17-.28-.17-.45,0-.57,0-1.14,0-1.71s.16-.54.57-.55C193.5,67.92,193.5,67.91,193.5,69.43Z"/><text class="cls-22" transform="translate(121.42 71.05)">=</text><path class="cls-23" d="M16.46,0c0,3.29,0,6.58,0,9.87a1.85,1.85,0,0,0,.81,1.58c1.27,1.11,2.38,2.41,3.53,3.62H10.08a29.48,29.48,0,0,1,3.86-3.72,1.39,1.39,0,0,0,.66-1.29c0-3.35,0-6.7,0-10.05Z"/><path class="cls-24" d="M15.44,19.71H23c.83,0,1.41.46,1.3,1.08a1.14,1.14,0,0,1-1.29,1c-5.09,0-10.19,0-15.28,0-.74,0-1.31-.24-1.33-1.08S7,19.66,7.7,19.66h7.73Z"/><path class="cls-25" d="M15.36,25.18c-2.51,0-5,0-7.54,0a1.43,1.43,0,0,1-1.31-.55A1,1,0,0,1,7,23.11,3.08,3.08,0,0,1,8,23h14c.43,0,.87.05,1.3.06a1,1,0,0,1,1,1.08,1,1,0,0,1-1.08,1H15.36Z"/><path class="cls-26" d="M15.34,18.46H7.61a1.11,1.11,0,0,1-1.18-.72,1,1,0,0,1,.31-1.17,1.4,1.4,0,0,1,1-.22H23.08c.73,0,1.18.37,1.19,1a1,1,0,0,1-1.2,1.1C20.49,18.45,17.92,18.46,15.34,18.46Z"/><path class="cls-23" d="M30.27,36.45a1.87,1.87,0,0,0-.41-1.19c-2-2.63-3.94-5.25-5.85-7.92a1.94,1.94,0,0,0-1.78-.9q-7.13,0-14.26,0a1.83,1.83,0,0,0-1.65.81c-1.84,2.49-3.69,5-5.57,7.44A3.32,3.32,0,0,0,0,37c.06,1.24,0,2.48,0,3.73,0,2.45,0,2.48,2.46,2.46.83,0,1.09.21,1.09,1.09q-.05,14,0,28.05A9.25,9.25,0,0,0,3.74,75a5.9,5.9,0,0,0,4.59,4.4,6.13,6.13,0,0,0,6.37-2.09c.36-.43.53-.61.9,0a4.74,4.74,0,0,0,2.09,1.66,6.24,6.24,0,0,0,9.06-5.39c0-4.85,0-9.69,0-14.54h0q0-6.71,0-13.42c0-.74-.24-1.68.12-2.18s1.44-.21,2.19-.27a1.13,1.13,0,0,0,1.21-1.3C30.25,40.05,30.25,38.25,30.27,36.45ZM10.8,77.38a4.23,4.23,0,0,1-5-2.63,3.74,3.74,0,0,1-.18-1.46q0-7.22,0-14.44c0-4.91,0-9.82,0-14.72,0-.71.15-1,.92-1,2.26,0,2.26,0,2.26,2.28q0,13.61,0,27.21c0,.28,0,.56,0,.84a.93.93,0,0,0,1,1,1,1,0,0,0,1.11-1,4.85,4.85,0,0,0,0-.56q0-14.4,0-28.79c0-.75.15-1,1-1,2.22,0,2.22,0,2.23,2.25q0,13.84,0,27.68A4.1,4.1,0,0,1,10.8,77.38Zm9.74.09a4.08,4.08,0,0,1-4.25-4c0-9.85,0-19.69,0-29.54,0-.56.13-.74.72-.75,2.46,0,2.46-.07,2.46,2.38q0,13.42,0,26.84a9,9,0,0,0,0,1.21,1,1,0,0,0,1.07.95.94.94,0,0,0,1-1c0-.43,0-.87,0-1.3q0-14,0-28.05c0-.78.21-1,1-1,2.19,0,2.19,0,2.19,2.17q0,6.8,0,13.61c0,4.81-.06,9.63,0,14.44A4.18,4.18,0,0,1,20.54,77.47Zm6.9-36.4c-4.1,0-8.2,0-12.3,0s-8.14,0-12.2,0c-.64,0-.94-.16-.83-.82a.3.3,0,0,0,0-.09,7.69,7.69,0,0,1,2.19-6.74,45.31,45.31,0,0,0,3.23-4.31,1.25,1.25,0,0,1,1.15-.59q6.43,0,12.86,0a1.35,1.35,0,0,1,1.23.63q2.41,3.3,4.87,6.57a2.43,2.43,0,0,1,.58,1.69,26.07,26.07,0,0,0,0,2.89C28.25,40.92,28,41.07,27.43,41.07Z"/><path class="cls-23" d="M48.63,24.56c0,3.29,0,6.58,0,9.87A1.85,1.85,0,0,0,49.43,36c1.27,1.11,2.38,2.41,3.53,3.62H42.25a29.48,29.48,0,0,1,3.86-3.72,1.39,1.39,0,0,0,.66-1.29c0-3.35,0-6.7,0-10.05Z"/><path class="cls-24" d="M47.6,44.27h7.55c.83,0,1.41.46,1.3,1.08a1.14,1.14,0,0,1-1.29,1c-5.09,0-10.19,0-15.28,0-.74,0-1.31-.24-1.33-1.08s.59-1.08,1.32-1.08H47.6Z"/><path class="cls-25" d="M47.52,49.74c-2.51,0-5,0-7.54,0a1.43,1.43,0,0,1-1.31-.55,1,1,0,0,1,.54-1.53,3.08,3.08,0,0,1,.92-.11h14c.43,0,.87.05,1.3.06a1,1,0,0,1,1,1.08,1,1,0,0,1-1.08,1H47.52Z"/><path class="cls-26" d="M47.5,43H39.78a1.11,1.11,0,0,1-1.18-.72,1,1,0,0,1,.31-1.17,1.4,1.4,0,0,1,1-.22H55.24c.73,0,1.18.37,1.19,1a1,1,0,0,1-1.2,1.1C52.66,43,50.08,43,47.5,43Z"/><path class="cls-23" d="M62.43,61A1.87,1.87,0,0,0,62,59.82c-2-2.63-3.94-5.25-5.85-7.92a1.94,1.94,0,0,0-1.78-.9q-7.13,0-14.26,0a1.83,1.83,0,0,0-1.65.81c-1.84,2.49-3.69,5-5.57,7.44a3.32,3.32,0,0,0-.74,2.31c.06,1.24,0,2.48,0,3.73,0,2.45,0,2.48,2.46,2.46.83,0,1.09.21,1.09,1.09q-.05,14,0,28.05a9.25,9.25,0,0,0,.18,2.68,5.9,5.9,0,0,0,4.59,4.4,6.13,6.13,0,0,0,6.37-2.09c.36-.43.53-.61.9,0a4.74,4.74,0,0,0,2.09,1.66,6.24,6.24,0,0,0,9.06-5.39c0-4.85,0-9.69,0-14.54h0q0-6.71,0-13.42c0-.74-.24-1.68.12-2.18s1.44-.21,2.19-.27a1.13,1.13,0,0,0,1.21-1.3C62.41,64.61,62.42,62.81,62.43,61ZM43,101.94a4.23,4.23,0,0,1-5-2.63,3.74,3.74,0,0,1-.18-1.46q0-7.22,0-14.44c0-4.91,0-9.82,0-14.72,0-.71.15-1,.92-1C41,67.76,41,67.73,41,70q0,13.61,0,27.21c0,.28,0,.56,0,.84a.93.93,0,0,0,1,1,1,1,0,0,0,1.11-1,4.85,4.85,0,0,0,0-.56q0-14.4,0-28.79c0-.75.15-1,1-1,2.22,0,2.22,0,2.23,2.25q0,13.84,0,27.68A4.1,4.1,0,0,1,43,101.94Zm9.74.09a4.08,4.08,0,0,1-4.25-4c0-9.85,0-19.69,0-29.54,0-.56.13-.74.72-.75,2.46,0,2.46-.07,2.46,2.38q0,13.42,0,26.84a9,9,0,0,0,0,1.21,1,1,0,0,0,1.07.95.94.94,0,0,0,1-1c0-.43,0-.87,0-1.3q0-14,0-28.05c0-.78.21-1,1-1,2.19,0,2.19,0,2.19,2.17q0,6.8,0,13.61c0,4.81-.06,9.63,0,14.44A4.18,4.18,0,0,1,52.7,102Zm6.9-36.4c-4.1,0-8.2,0-12.3,0s-8.14,0-12.2,0c-.64,0-.94-.16-.83-.82a.3.3,0,0,0,0-.09A7.69,7.69,0,0,1,36.46,58a45.31,45.31,0,0,0,3.23-4.31,1.25,1.25,0,0,1,1.15-.59q6.43,0,12.86,0a1.35,1.35,0,0,1,1.23.63q2.41,3.3,4.87,6.57A2.43,2.43,0,0,1,60.38,62a26.07,26.07,0,0,0,0,2.89C60.41,65.48,60.2,65.64,59.6,65.63Z"/><path class="cls-23" d="M80.79,0c0,3.29,0,6.58,0,9.87a1.85,1.85,0,0,0,.81,1.58c1.27,1.11,2.38,2.41,3.53,3.62H74.41a29.48,29.48,0,0,1,3.86-3.72,1.39,1.39,0,0,0,.66-1.29c0-3.35,0-6.7,0-10.05Z"/><path class="cls-24" d="M79.76,19.71h7.55c.83,0,1.41.46,1.3,1.08a1.14,1.14,0,0,1-1.29,1c-5.09,0-10.19,0-15.28,0-.74,0-1.31-.24-1.33-1.08s.59-1.08,1.32-1.08h7.73Z"/><path class="cls-25" d="M79.68,25.18c-2.51,0-5,0-7.54,0a1.43,1.43,0,0,1-1.31-.55,1,1,0,0,1,.54-1.53,3.08,3.08,0,0,1,.92-.11h14c.43,0,.87.05,1.3.06a1,1,0,0,1,1,1.08,1,1,0,0,1-1.08,1H79.68Z"/><path class="cls-26" d="M79.67,18.46H71.94a1.11,1.11,0,0,1-1.18-.72,1,1,0,0,1,.31-1.17,1.4,1.4,0,0,1,1-.22H87.4c.73,0,1.18.37,1.19,1a1,1,0,0,1-1.2,1.1C84.82,18.45,82.24,18.46,79.67,18.46Z"/><path class="cls-23" d="M94.6,36.45a1.87,1.87,0,0,0-.41-1.19c-2-2.63-3.94-5.25-5.85-7.92a1.94,1.94,0,0,0-1.78-.9q-7.13,0-14.26,0a1.83,1.83,0,0,0-1.65.81c-1.84,2.49-3.69,5-5.57,7.44A3.32,3.32,0,0,0,64.33,37c.06,1.24,0,2.48,0,3.73,0,2.45,0,2.48,2.46,2.46.83,0,1.09.21,1.09,1.09q-.05,14,0,28.05A9.25,9.25,0,0,0,68.06,75a5.9,5.9,0,0,0,4.59,4.4A6.13,6.13,0,0,0,79,77.31c.36-.43.53-.61.9,0A4.74,4.74,0,0,0,82,78.94a6.24,6.24,0,0,0,9.06-5.39c0-4.85,0-9.69,0-14.54h0q0-6.71,0-13.42c0-.74-.24-1.68.12-2.18s1.44-.21,2.19-.27a1.13,1.13,0,0,0,1.21-1.3C94.57,40.05,94.58,38.25,94.6,36.45ZM75.13,77.38a4.23,4.23,0,0,1-5-2.63A3.74,3.74,0,0,1,70,73.3q0-7.22,0-14.44c0-4.91,0-9.82,0-14.72,0-.71.15-1,.92-1,2.26,0,2.26,0,2.26,2.28q0,13.61,0,27.21c0,.28,0,.56,0,.84a.93.93,0,0,0,1,1,1,1,0,0,0,1.11-1,4.85,4.85,0,0,0,0-.56q0-14.4,0-28.79c0-.75.15-1,1-1,2.22,0,2.22,0,2.23,2.25q0,13.84,0,27.68A4.1,4.1,0,0,1,75.13,77.38Zm9.74.09a4.08,4.08,0,0,1-4.25-4c0-9.85,0-19.69,0-29.54,0-.56.13-.74.72-.75,2.46,0,2.46-.07,2.46,2.38q0,13.42,0,26.84a9,9,0,0,0,0,1.21,1,1,0,0,0,1.07.95.94.94,0,0,0,1-1c0-.43,0-.87,0-1.3q0-14,0-28.05c0-.78.21-1,1-1,2.19,0,2.19,0,2.19,2.17q0,6.8,0,13.61c0,4.81-.06,9.63,0,14.44A4.18,4.18,0,0,1,84.86,77.47Zm6.9-36.4c-4.1,0-8.2,0-12.3,0s-8.14,0-12.2,0c-.64,0-.94-.16-.83-.82a.3.3,0,0,0,0-.09,7.69,7.69,0,0,1,2.19-6.74,45.31,45.31,0,0,0,3.23-4.31A1.25,1.25,0,0,1,73,28.52q6.43,0,12.86,0a1.35,1.35,0,0,1,1.23.63q2.41,3.3,4.87,6.57a2.43,2.43,0,0,1,.58,1.69,26.07,26.07,0,0,0,0,2.89C92.57,40.92,92.36,41.07,91.76,41.07Z"/></g></g></svg>