<svg xmlns="http://www.w3.org/2000/svg" viewBox="0 0 158.01 78.13"><defs><style>.cls-1{fill:#8cc53b;}.cls-2{fill:#8ec53c;}.cls-3{fill:#8cc63c;}.cls-4{fill:#8dc63d;}.cls-5{fill:#7ab513;}.cls-6{fill:#7cba10;}.cls-7{fill:#80b81a;}.cls-8{fill:#81b71a;}.cls-9{fill:#84b510;}.cls-10{fill:#8fc73f;}.cls-11{fill:#90c63f;}.cls-12{fill:#8ac437;}.cls-13{fill:#8fc640;}.cls-14{fill:#8cc53a;}.cls-15{fill:#8dc53b;}.cls-16{fill:#8cc43b;}.cls-17{fill:#8cc43c;}.cls-18{fill:#8bc43a;}.cls-19{fill:#8dc43d;}.cls-20{fill:#8bc339;}.cls-21{fill:#8ac235;}.cls-22{font-size:64.91px;fill:#539947;font-family:OpenSans-Bold, Open Sans;font-weight:700;}</style></defs><title>plan3</title><g id="Capa_2" data-name="Capa 2"><g id="Capa_1-2" data-name="Capa 1"><path class="cls-1" d="M16,0c0,3.22,0,6.44,0,9.66a1.64,1.64,0,0,0,.7,1.37C17.91,12.17,19,13.48,20,14.6H9.9c-.11-.25.15-.34.28-.47,1.25-1.13,2.23-2.54,3.71-3.41.4-.23.25-.58.25-.88,0-3.28,0-6.56,0-9.85Z"/><path class="cls-2" d="M14.81,21.17H7.59c-1,0-1.45-.33-1.42-1.08s.66-1,1.38-1H22.18c.76,0,1.31.23,1.39,1.06.06.65-.49,1.07-1.36,1.07Z"/><path class="cls-3" d="M14.79,22.29h7.32c.95,0,1.49.41,1.47,1.08s-.57,1.05-1.51,1.05H7.71c-1.06,0-1.54-.34-1.53-1.09s.46-1,1.57-1Z"/><path class="cls-4" d="M6.95,17.86a1,1,0,0,1-.75-1.24c.12-.63.59-.76,1.15-.77,5-.07,10.06-.09,15.08,0a1,1,0,0,1,1.09.73,1,1,0,0,1-.71,1.27c-3.64-.1-7.28,0-10.91,0C10.25,17.81,8.6,17.75,6.95,17.86Z"/><path class="cls-5" d="M3.86,42c.29.27.17.62.17.94Q4,56.14,4,69.38c0,.32.11.67-.14,1,0-3.86,0-7.71,0-11.57Q3.85,50.36,3.86,42Z"/><path class="cls-6" d="M6.95,17.86c.2-.19.45-.13.68-.13h14.5c.23,0,.48-.06.69.13-2.77,0-5.53,0-8.3,0C12,17.9,9.47,17.87,6.95,17.86Z"/><path class="cls-7" d="M22.11,25.71c-.22.23-.51.15-.77.15H8.43c-.26,0-.55.08-.77-.16C12.48,25.62,17.29,25.61,22.11,25.71Z"/><path class="cls-1" d="M29.19,32.42a8.26,8.26,0,0,0-7.08-6.71,1.14,1.14,0,0,1-.53.07H8.19a1,1,0,0,1-.53-.07C4,25.61.2,29.29.05,33.15c-.1,2.71,0,5.42,0,8.13,0,.54.2.65.69.64,1.05,0,2.11,0,3.16,0a1.44,1.44,0,0,1,.08.79q0,13.44,0,26.87a1.71,1.71,0,0,1-.06.71,5,5,0,0,0,5,4.91q5.74,0,11.47,0a5,5,0,0,0,5.06-5c0-2.74,0-5.48,0-8.22,0-6.38,0-12.77,0-19.15,0-.76.21-1,1-.95,1,.07,2,0,3,.06v-9C29.2,32.78,29.21,32.59,29.19,32.42Zm-5.81,10.3q0,7,0,14,0,6.42,0,12.84c0,2.17-.76,3.14-2.9,3.7a31.69,31.69,0,0,1-3.59.06c-2.61,0-5.22,0-7.84,0-.28,0-.6.13-.85-.14A3.79,3.79,0,0,1,5.86,70.5c-.18-.24-.1-.52-.1-.79q0-13.49,0-27c0-.26-.09-.54.1-.78,5.63,0,11.27,0,16.9-.06C23.43,41.9,23.38,42.27,23.38,42.71Zm3.11-2.9c-3.95,0-7.9,0-11.84,0s-7.84,0-11.75,0c-.68,0-.87-.18-.85-.85,0-1.78,0-3.56,0-5.33a6.25,6.25,0,0,1,5.75-5.92q6.82-.09,13.65,0a6.28,6.28,0,0,1,5.87,6.2c0,1.69,0,3.38,0,5.06C27.38,39.65,27.16,39.82,26.49,39.82Z"/><path class="cls-8" d="M5.86,42q0,14.27,0,28.54l-.06.35-.1,0c0-.17,0-.35,0-.52q0-13.73,0-27.47C5.67,42.57,5.53,42.21,5.86,42Z"/><path class="cls-9" d="M8.2,73.19l11.37.06.9,0c-.22.24-.5.15-.76.15H9C8.73,73.42,8.39,73.54,8.2,73.19Z"/><path class="cls-10" d="M20.83,46.35v.09c0,1.26-.56,1.67-1.8,1.3-.06,0-.16,0-.17,0a6.22,6.22,0,0,1-.11-2.47c0-.52.56-.31.88-.31C20.83,44.88,20.83,44.9,20.83,46.35Z"/><path class="cls-11" d="M18.72,51.82a1.26,1.26,0,0,1,0-.18c.06-.37-.2-1,.15-1.08a5,5,0,0,1,1.69-.07c.22,0,.27.2.27.39,0,.66,0,1.32,0,2,0,.29-.14.44-.44.43a3.94,3.94,0,0,0-.72,0c-.74.11-1.07-.17-.94-.93A3.4,3.4,0,0,0,18.72,51.82Z"/><path class="cls-12" d="M20.82,68.53q0,.09,0,.18A1.2,1.2,0,0,1,19,69.92a.39.39,0,0,1-.27-.41c0-.66,0-1.32,0-2,0-.31.16-.42.45-.42a6.1,6.1,0,0,0,.72,0c.66-.07,1.05.12.93.88a3.33,3.33,0,0,0,0,.54Z"/><path class="cls-13" d="M20.83,63s0,.06,0,.09c0,1.33-.47,1.68-1.78,1.34-.2-.05-.32-.13-.32-.35,0-.69,0-1.38,0-2.07,0-.32.18-.41.46-.39l.27,0C20.83,61.61,20.83,61.61,20.83,63Z"/><path class="cls-13" d="M15.8,68.51a1.81,1.81,0,0,1,0,.27c-.06.37.21.95-.17,1.08a4.61,4.61,0,0,1-1.68.05c-.26,0-.26-.3-.25-.5,0-.57.06-1.14,0-1.71s.18-.6.63-.59C16.11,67.13,15.76,67,15.8,68.51Z"/><path class="cls-14" d="M20.83,57.4s0,.06,0,.09c0,1.27-.58,1.78-1.76,1.27-.79-.34-.21-1.28-.32-1.93,0-.26-.21-.72.33-.76s.84,0,1.26,0,.53.17.5.54S20.83,57.13,20.83,57.4Z"/><path class="cls-15" d="M13.73,51.86a2.1,2.1,0,0,1,0-.25c.06-.37-.2-.95.15-1.07a4.53,4.53,0,0,1,1.68,0c.27,0,.23.31.24.51q0,.54,0,1.08c0,1.37.19,1.13-1.17,1.22S14,52.32,13.73,51.86Z"/><path class="cls-16" d="M8.7,68.46v-.09c0-1.18.73-1.78,1.74-1.2.75.43.15,1.43.29,2.15,0,.25.1.59-.32.61s-.9,0-1.35,0c-.28,0-.36-.16-.36-.4S8.7,68.82,8.7,68.46Z"/><path class="cls-1" d="M15.79,46.36a1.3,1.3,0,0,1,0,.18c-.05.38.19,1-.13,1.09a3.53,3.53,0,0,1-1.68.07c-.46-.07-.27-.56-.24-.83.07-.66-.36-1.49.26-1.92.36-.25,1.05-.06,1.59,0,.23,0,.19.27.19.44C15.8,45.7,15.79,46,15.79,46.36Z"/><path class="cls-17" d="M10.74,46.32s0,.06,0,.09c0,1.33-.43,1.65-1.73,1.34-.36-.09-.3-.31-.3-.53,0-.57,0-1.14,0-1.7s.17-.64.67-.62C10.73,44.94,10.73,44.91,10.74,46.32Z"/><path class="cls-18" d="M13.73,63c0-1.56,0-1.53,1.54-1.41.71.05.6.56.5.89-.19.63.64,1.64-.47,1.87C13.76,64.67,13.73,64.56,13.73,63Z"/><path class="cls-19" d="M8.7,52c0-.16,0-.25,0-.34,0-1.09.79-1.68,1.75-1.11.69.41.19,1.31.28,2,0,.24.22.69-.22.75a3.15,3.15,0,0,1-1.6,0C8.41,53,8.85,52.34,8.7,52Z"/><path class="cls-20" d="M8.7,62.82c.07-.35-.21-1,.1-1.12a4.53,4.53,0,0,1,1.67-.12c.32,0,.27.26.27.46a9.55,9.55,0,0,0,0,1.25c.14.91-.18,1.21-1.1,1.12S8.7,64.38,8.7,62.82Z"/><path class="cls-18" d="M15.79,57.45c0,1.37-.38,1.77-1.66,1.3-.89-.33-.22-1.37-.4-2.07-.06-.26-.14-.58.35-.65C15.55,55.81,15.79,56,15.79,57.45Z"/><path class="cls-21" d="M10.74,57.48a1.34,1.34,0,0,1,0,.27c-.07.34.2.88-.17,1a5.09,5.09,0,0,1-1.69,0c-.22,0-.17-.28-.17-.45,0-.57,0-1.14,0-1.71s.16-.54.57-.55C10.74,56,10.74,56,10.74,57.48Z"/><path class="cls-1" d="M144.63,0c0,3.22,0,6.44,0,9.66a1.64,1.64,0,0,0,.7,1.37c1.23,1.14,2.3,2.45,3.33,3.57H138.55c-.11-.25.15-.34.28-.47,1.25-1.13,2.23-2.54,3.71-3.41.4-.23.25-.58.25-.88,0-3.28,0-6.56,0-9.85Z"/><path class="cls-2" d="M143.47,21.17h-7.22c-1,0-1.45-.33-1.42-1.08s.66-1,1.38-1h14.61c.76,0,1.31.23,1.39,1.06.06.65-.49,1.07-1.36,1.07Z"/><path class="cls-3" d="M143.45,22.29h7.32c.95,0,1.49.41,1.47,1.08s-.57,1.05-1.51,1.05H136.36c-1.06,0-1.54-.34-1.53-1.09s.46-1,1.57-1Z"/><path class="cls-4" d="M135.6,17.86a1,1,0,0,1-.75-1.24c.12-.63.59-.76,1.15-.77,5-.07,10.06-.09,15.08,0a1,1,0,0,1,1.09.73,1,1,0,0,1-.71,1.27c-3.64-.1-7.28,0-10.91,0C138.91,17.81,137.25,17.75,135.6,17.86Z"/><path class="cls-5" d="M132.51,42c.29.27.17.62.17.94q0,13.24,0,26.48c0,.32.11.67-.14,1,0-3.86,0-7.71,0-11.57Q132.5,50.36,132.51,42Z"/><path class="cls-6" d="M135.6,17.86c.2-.19.45-.13.68-.13h14.5c.23,0,.48-.06.69.13-2.77,0-5.53,0-8.3,0C140.65,17.9,138.13,17.87,135.6,17.86Z"/><path class="cls-7" d="M150.76,25.71c-.22.23-.51.15-.77.15H137.08c-.26,0-.55.08-.77-.16C141.13,25.62,145.95,25.61,150.76,25.71Z"/><path class="cls-1" d="M157.85,32.42a8.26,8.26,0,0,0-7.08-6.71,1.14,1.14,0,0,1-.53.07H136.85a1,1,0,0,1-.53-.07c-3.64-.1-7.46,3.58-7.61,7.45-.1,2.71,0,5.42,0,8.13,0,.54.2.65.69.64,1.05,0,2.11,0,3.16,0a1.44,1.44,0,0,1,.08.79q0,13.44,0,26.87a1.71,1.71,0,0,1-.06.71,5,5,0,0,0,5,4.91q5.74,0,11.47,0a5,5,0,0,0,5.06-5c0-2.74,0-5.48,0-8.22,0-6.38,0-12.77,0-19.15,0-.76.21-1,1-.95,1,.07,2,0,3,.06v-9C157.86,32.78,157.87,32.59,157.85,32.42ZM152,42.71q0,7,0,14,0,6.42,0,12.84c0,2.17-.76,3.14-2.9,3.7a31.69,31.69,0,0,1-3.59.06c-2.61,0-5.22,0-7.84,0-.28,0-.6.13-.85-.14a3.79,3.79,0,0,1-2.34-2.69c-.18-.24-.1-.52-.1-.79q0-13.49,0-27c0-.26-.09-.54.1-.78,5.63,0,11.27,0,16.9-.06C152.08,41.9,152,42.27,152,42.71Zm3.11-2.9c-3.95,0-7.9,0-11.84,0s-7.84,0-11.75,0c-.68,0-.87-.18-.85-.85,0-1.78,0-3.56,0-5.33a6.25,6.25,0,0,1,5.75-5.92q6.82-.09,13.65,0A6.28,6.28,0,0,1,156,33.9c0,1.69,0,3.38,0,5.06C156,39.65,155.82,39.82,155.15,39.82Z"/><path class="cls-8" d="M134.52,42q0,14.27,0,28.54l-.06.35-.1,0c0-.17,0-.35,0-.52q0-13.73,0-27.47C134.32,42.57,134.19,42.21,134.52,42Z"/><path class="cls-9" d="M136.86,73.19l11.37.06.9,0c-.22.24-.5.15-.76.15H137.66C137.38,73.42,137,73.54,136.86,73.19Z"/><path class="cls-10" d="M149.48,46.35v.09c0,1.26-.56,1.67-1.8,1.3-.06,0-.16,0-.17,0a6.22,6.22,0,0,1-.11-2.47c0-.52.56-.31.88-.31C149.49,44.88,149.49,44.9,149.48,46.35Z"/><path class="cls-11" d="M147.38,51.82a1.26,1.26,0,0,1,0-.18c.06-.37-.2-1,.15-1.08a5,5,0,0,1,1.69-.07c.22,0,.27.2.27.39,0,.66,0,1.32,0,2,0,.29-.14.44-.44.43a3.94,3.94,0,0,0-.72,0c-.74.11-1.07-.17-.94-.93A3.4,3.4,0,0,0,147.38,51.82Z"/><path class="cls-12" d="M149.48,68.53q0,.09,0,.18a1.2,1.2,0,0,1-1.82,1.22.39.39,0,0,1-.27-.41c0-.66,0-1.32,0-2,0-.31.16-.42.45-.42a6.1,6.1,0,0,0,.72,0c.66-.07,1.05.12.93.88a3.33,3.33,0,0,0,0,.54Z"/><path class="cls-13" d="M149.49,63s0,.06,0,.09c0,1.33-.47,1.68-1.78,1.34-.2-.05-.32-.13-.32-.35,0-.69,0-1.38,0-2.07,0-.32.18-.41.46-.39l.27,0C149.49,61.61,149.49,61.61,149.49,63Z"/><path class="cls-13" d="M144.45,68.51a1.81,1.81,0,0,1,0,.27c-.06.37.21.95-.17,1.08a4.61,4.61,0,0,1-1.68.05c-.26,0-.26-.3-.25-.5,0-.57.06-1.14,0-1.71s.18-.6.63-.59C144.77,67.13,144.42,67,144.45,68.51Z"/><path class="cls-14" d="M149.48,57.4s0,.06,0,.09c0,1.27-.58,1.78-1.76,1.27-.79-.34-.21-1.28-.32-1.93,0-.26-.21-.72.33-.76s.84,0,1.26,0,.53.17.5.54S149.48,57.13,149.48,57.4Z"/><path class="cls-15" d="M142.38,51.86a2.1,2.1,0,0,1,0-.25c.06-.37-.2-.95.15-1.07a4.53,4.53,0,0,1,1.68,0c.27,0,.23.31.24.51q0,.54,0,1.08c0,1.37.19,1.13-1.17,1.22S142.61,52.32,142.38,51.86Z"/><path class="cls-16" d="M137.36,68.46v-.09c0-1.18.73-1.78,1.74-1.2.75.43.15,1.43.29,2.15,0,.25.1.59-.32.61s-.9,0-1.35,0c-.28,0-.36-.16-.36-.4S137.36,68.82,137.36,68.46Z"/><path class="cls-1" d="M144.45,46.36a1.3,1.3,0,0,1,0,.18c-.05.38.19,1-.13,1.09a3.53,3.53,0,0,1-1.68.07c-.46-.07-.27-.56-.24-.83.07-.66-.36-1.49.26-1.92.36-.25,1.05-.06,1.59,0,.23,0,.19.27.19.44C144.45,45.7,144.45,46,144.45,46.36Z"/><path class="cls-17" d="M139.4,46.32s0,.06,0,.09c0,1.33-.43,1.65-1.73,1.34-.36-.09-.3-.31-.3-.53,0-.57,0-1.14,0-1.7s.17-.64.67-.62C139.39,44.94,139.39,44.91,139.4,46.32Z"/><path class="cls-18" d="M142.38,63c0-1.56,0-1.53,1.54-1.41.71.05.6.56.5.89-.19.63.64,1.64-.47,1.87C142.42,64.67,142.38,64.56,142.38,63Z"/><path class="cls-19" d="M137.36,52c0-.16,0-.25,0-.34,0-1.09.79-1.68,1.75-1.11.69.41.19,1.31.28,2,0,.24.22.69-.22.75a3.15,3.15,0,0,1-1.6,0C137.07,53,137.51,52.34,137.36,52Z"/><path class="cls-20" d="M137.36,62.82c.07-.35-.21-1,.1-1.12a4.53,4.53,0,0,1,1.67-.12c.32,0,.27.26.27.46a9.55,9.55,0,0,0,0,1.25c.14.91-.18,1.21-1.1,1.12S137.36,64.38,137.36,62.82Z"/><path class="cls-18" d="M144.45,57.45c0,1.37-.38,1.77-1.66,1.3-.89-.33-.22-1.37-.4-2.07-.06-.26-.14-.58.35-.65C144.2,55.81,144.45,56,144.45,57.45Z"/><path class="cls-21" d="M139.39,57.48a1.34,1.34,0,0,1,0,.27c-.07.34.2.88-.17,1a5.09,5.09,0,0,1-1.69,0c-.22,0-.17-.28-.17-.45,0-.57,0-1.14,0-1.71s.16-.54.57-.55C139.4,56,139.4,56,139.39,57.48Z"/><text class="cls-22" transform="translate(64.97 59.11)">=</text></g></g></svg>