<svg xmlns="http://www.w3.org/2000/svg" viewBox="0 0 219.42 122.22"><defs><style>.cls-1{fill:#f3691d;}.cls-2{fill:#f36a1e;}.cls-3{fill:#f46920;}.cls-4{fill:#e85701;}.cls-5{fill:#f85004;}.cls-6{fill:#f74e00;}.cls-7{fill:#8cc53b;}.cls-8{fill:#8ec53c;}.cls-9{fill:#8cc63c;}.cls-10{fill:#8dc63d;}.cls-11{fill:#7ab513;}.cls-12{fill:#7cba10;}.cls-13{fill:#80b81a;}.cls-14{fill:#81b71a;}.cls-15{fill:#84b510;}.cls-16{fill:#8fc73f;}.cls-17{fill:#90c63f;}.cls-18{fill:#8ac437;}.cls-19{fill:#8fc640;}.cls-20{fill:#8cc53a;}.cls-21{fill:#8dc53b;}.cls-22{fill:#8cc43b;}.cls-23{fill:#8cc43c;}.cls-24{fill:#8bc43a;}.cls-25{fill:#8dc43d;}.cls-26{fill:#8bc339;}.cls-27{fill:#8ac235;}.cls-28{font-size:64.91px;fill:#539947;font-family:OpenSans-Bold, Open Sans;font-weight:700;}</style></defs><title>plan1</title><g id="Capa_2" data-name="Capa 2"><g id="Capa_1-2" data-name="Capa 1"><path class="cls-1" d="M41.3,0c0,3.25,0,6.51,0,9.76a1.61,1.61,0,0,0,.7,1.38c1.26,1.11,2.35,2.41,3.5,3.62H35.14c-.13-.27.14-.37.27-.49,1.25-1.15,2.25-2.58,3.75-3.44.37-.21.24-.52.24-.8,0-3,0-6,0-9,0-.33,0-.67.05-1Z"/><path class="cls-2" d="M40.2,24.67H32.81c-1,0-1.46-.35-1.42-1.11s.68-1,1.41-1H47.49c.91,0,1.55.48,1.46,1.12-.12.81-.68,1-1.45,1C45.07,24.65,42.63,24.67,40.2,24.67Z"/><path class="cls-1" d="M32.18,18a1,1,0,0,1-.78-1.23c.11-.61.56-.8,1.15-.8q7.62,0,15.24,0a1,1,0,0,1,1.1.76.84.84,0,0,1-.56,1.15,2.61,2.61,0,0,1-1,.07H33.18A3.87,3.87,0,0,0,32.18,18Z"/><path class="cls-3" d="M32.18,21.32c-.55-.13-.86-.43-.76-1a1.62,1.62,0,0,1,1.65-.84c4.73,0,9.45,0,14.18,0a2,2,0,0,0,1-.08c.93.58,1,1.21.1,1.83a2.61,2.61,0,0,1-1,.07H33.17A4.11,4.11,0,0,0,32.18,21.32Z"/><path class="cls-4" d="M48.24,19.37c-.3.3-.69.17-1,.17H34.81c-1.18,0-2.42-.25-3.39.74,0-.92.62-1,1.29-1H47.25C47.58,19.29,47.91,19.34,48.24,19.37Z"/><path class="cls-5" d="M32.18,21.32c.2-.19.46-.13.69-.13l15.46,0c-.18.24-.44.16-.67.16H32.54A2.51,2.51,0,0,1,32.18,21.32Z"/><path class="cls-6" d="M32.18,18a.77.77,0,0,1,.6-.13H48.32c-.15.22-.37.16-.58.16H32.45A1.64,1.64,0,0,1,32.18,18Z"/><path class="cls-1" d="M53.5,39.34c-1.71-2.74-3.29-5.44-3.21-8.82a6.25,6.25,0,0,0-2-4.2,1.21,1.21,0,0,0-1-.45Q40,25.95,32.7,26a1.52,1.52,0,0,0-1.25.59,7.26,7.26,0,0,0-1.89,5.07A9.52,9.52,0,0,1,28.11,37,30.31,30.31,0,0,0,24,45.7c-.24,1-.43,1.93-.65,2.89v4c.19.06.15.23.18.37a17,17,0,0,0,6.17,10.93c3.81,3,8.2,3.7,12.91,3.17,8.48-1,13.57-7.78,14.19-15.48A19.83,19.83,0,0,0,53.5,39.34ZM42.7,65c-4.65.62-9-.1-12.61-3.52A15,15,0,0,1,25.6,52c-.53-4.54,1.05-8.54,3.34-12.32a16,16,0,0,0,2.62-6.24,29.81,29.81,0,0,1,.22-3.18,4.43,4.43,0,0,1,.28-1A1.87,1.87,0,0,1,34,28.07c2,.1,4,0,6,0V28h5.29c2,0,2.88.9,2.93,3a18.09,18.09,0,0,0,.44,3.51,13.27,13.27,0,0,0,2,4.34,22.9,22.9,0,0,1,4,9.68C55.49,54.86,52,63.74,42.7,65Z"/><path class="cls-1" d="M17.9,55c0,3.25,0,6.51,0,9.76a1.61,1.61,0,0,0,.7,1.38c1.26,1.11,2.35,2.41,3.5,3.62H11.75c-.13-.27.14-.37.27-.49,1.25-1.15,2.25-2.58,3.75-3.44.37-.21.24-.52.24-.8,0-3,0-6,0-9,0-.33,0-.67.05-1Z"/><path class="cls-2" d="M16.81,79.64H9.42c-1,0-1.46-.35-1.42-1.11s.68-1,1.41-1H24.1c.91,0,1.55.48,1.46,1.12-.12.81-.68,1-1.45,1C21.68,79.62,19.24,79.64,16.81,79.64Z"/><path class="cls-1" d="M8.79,73A1,1,0,0,1,8,71.78c.11-.61.56-.8,1.15-.8q7.62,0,15.24,0a1,1,0,0,1,1.1.76.84.84,0,0,1-.56,1.15,2.61,2.61,0,0,1-1,.07H9.79A3.87,3.87,0,0,0,8.79,73Z"/><path class="cls-3" d="M8.79,76.29c-.55-.13-.86-.43-.76-1a1.62,1.62,0,0,1,1.65-.84c4.73,0,9.45,0,14.18,0a2,2,0,0,0,1-.08c.93.58,1,1.21.1,1.83a2.61,2.61,0,0,1-1,.07H9.78A4.11,4.11,0,0,0,8.79,76.29Z"/><path class="cls-4" d="M24.84,74.34c-.3.3-.69.17-1,.17H11.42c-1.18,0-2.42-.25-3.39.74,0-.92.62-1,1.29-1H23.86C24.19,74.26,24.52,74.31,24.84,74.34Z"/><path class="cls-5" d="M8.79,76.29c.2-.19.46-.13.69-.13l15.46,0c-.18.24-.44.16-.67.16H9.14A2.51,2.51,0,0,1,8.79,76.29Z"/><path class="cls-6" d="M8.79,73a.77.77,0,0,1,.6-.13H24.93c-.15.22-.37.16-.58.16H9.05A1.64,1.64,0,0,1,8.79,73Z"/><path class="cls-1" d="M30.11,94.32c-1.71-2.74-3.29-5.44-3.21-8.82a6.25,6.25,0,0,0-2-4.2,1.21,1.21,0,0,0-1-.45q-7.3.07-14.61.09a1.52,1.52,0,0,0-1.25.59A7.26,7.26,0,0,0,6.17,86.6,9.52,9.52,0,0,1,4.72,92a30.31,30.31,0,0,0-4.07,8.71c-.24,1-.43,1.93-.65,2.89v4c.19.06.15.23.18.37a17,17,0,0,0,6.17,10.93c3.81,3,8.2,3.7,12.91,3.17,8.48-1,13.57-7.78,14.19-15.48A19.83,19.83,0,0,0,30.11,94.32ZM19.31,120c-4.65.62-9-.1-12.61-3.52A15,15,0,0,1,2.21,107c-.53-4.54,1.05-8.54,3.34-12.32a16,16,0,0,0,2.62-6.24,29.81,29.81,0,0,1,.22-3.18,4.43,4.43,0,0,1,.28-1A1.87,1.87,0,0,1,10.6,83c2,.1,4,0,6,0v-.14h5.29c2,0,2.88.9,2.93,3a18.09,18.09,0,0,0,.44,3.51,13.27,13.27,0,0,0,2,4.34,22.9,22.9,0,0,1,4,9.68C32.1,109.83,28.62,118.71,19.31,120Z"/><path class="cls-1" d="M63.52,55c0,3.25,0,6.51,0,9.76a1.61,1.61,0,0,0,.7,1.38c1.26,1.11,2.35,2.41,3.5,3.62H57.37c-.13-.27.14-.37.27-.49,1.25-1.15,2.25-2.58,3.75-3.44.37-.21.24-.52.24-.8,0-3,0-6,0-9,0-.33,0-.67.05-1Z"/><path class="cls-2" d="M62.42,79.64H55c-1,0-1.46-.35-1.42-1.11s.68-1,1.41-1H69.72c.91,0,1.55.48,1.46,1.12-.12.81-.68,1-1.45,1C67.29,79.62,64.86,79.64,62.42,79.64Z"/><path class="cls-1" d="M54.4,73a1,1,0,0,1-.78-1.23c.11-.61.56-.8,1.15-.8Q62.39,71,70,71a1,1,0,0,1,1.1.76.84.84,0,0,1-.56,1.15,2.61,2.61,0,0,1-1,.07H55.4A3.87,3.87,0,0,0,54.4,73Z"/><path class="cls-3" d="M54.4,76.29c-.55-.13-.86-.43-.76-1a1.62,1.62,0,0,1,1.65-.84c4.73,0,9.45,0,14.18,0a2,2,0,0,0,1-.08c.93.58,1,1.21.1,1.83a2.61,2.61,0,0,1-1,.07H55.39A4.11,4.11,0,0,0,54.4,76.29Z"/><path class="cls-4" d="M70.46,74.34c-.3.3-.69.17-1,.17H57c-1.18,0-2.42-.25-3.39.74,0-.92.62-1,1.29-1H69.47C69.8,74.26,70.13,74.31,70.46,74.34Z"/><path class="cls-5" d="M54.4,76.29c.2-.19.46-.13.69-.13l15.46,0c-.18.24-.44.16-.67.16H54.76A2.51,2.51,0,0,1,54.4,76.29Z"/><path class="cls-6" d="M54.4,73a.77.77,0,0,1,.6-.13H70.55c-.15.22-.37.16-.58.16H54.67A1.64,1.64,0,0,1,54.4,73Z"/><path class="cls-1" d="M75.72,94.32c-1.71-2.74-3.29-5.44-3.21-8.82a6.25,6.25,0,0,0-2-4.2,1.21,1.21,0,0,0-1-.45q-7.3.07-14.61.09a1.52,1.52,0,0,0-1.25.59,7.26,7.26,0,0,0-1.89,5.07A9.52,9.52,0,0,1,50.33,92a30.31,30.31,0,0,0-4.07,8.71c-.24,1-.43,1.93-.65,2.89v4c.19.06.15.23.18.37A17,17,0,0,0,52,118.89c3.81,3,8.2,3.7,12.91,3.17,8.48-1,13.57-7.78,14.19-15.48A19.83,19.83,0,0,0,75.72,94.32ZM64.92,120c-4.65.62-9-.1-12.61-3.52A15,15,0,0,1,47.82,107c-.53-4.54,1.05-8.54,3.34-12.32a16,16,0,0,0,2.62-6.24A29.81,29.81,0,0,1,54,85.28a4.43,4.43,0,0,1,.28-1A1.87,1.87,0,0,1,56.22,83c2,.1,4,0,6,0v-.14h5.29c2,0,2.88.9,2.93,3a18.09,18.09,0,0,0,.44,3.51,13.27,13.27,0,0,0,2,4.34,22.9,22.9,0,0,1,4,9.68C77.71,109.83,74.23,118.71,64.92,120Z"/><path class="cls-1" d="M106.79,55c0,3.25,0,6.51,0,9.76a1.61,1.61,0,0,0,.7,1.38c1.26,1.11,2.35,2.41,3.5,3.62H100.64c-.13-.27.14-.37.27-.49,1.25-1.15,2.25-2.58,3.75-3.44.37-.21.24-.52.24-.8,0-3,0-6,0-9,0-.33,0-.67.05-1Z"/><path class="cls-2" d="M105.7,79.64H98.3c-1,0-1.46-.35-1.42-1.11s.68-1,1.41-1H113c.91,0,1.55.48,1.46,1.12-.12.81-.68,1-1.45,1C110.57,79.62,108.13,79.64,105.7,79.64Z"/><path class="cls-1" d="M97.67,73a1,1,0,0,1-.78-1.23c.11-.61.56-.8,1.15-.8q7.62,0,15.24,0a1,1,0,0,1,1.1.76.84.84,0,0,1-.56,1.15,2.61,2.61,0,0,1-1,.07H98.67A3.87,3.87,0,0,0,97.67,73Z"/><path class="cls-3" d="M97.67,76.29c-.55-.13-.86-.43-.76-1a1.62,1.62,0,0,1,1.65-.84c4.73,0,9.45,0,14.18,0a2,2,0,0,0,1-.08c.93.58,1,1.21.1,1.83a2.61,2.61,0,0,1-1,.07H98.67A4.11,4.11,0,0,0,97.67,76.29Z"/><path class="cls-4" d="M113.73,74.34c-.3.3-.69.17-1,.17H100.31c-1.18,0-2.42-.25-3.39.74,0-.92.62-1,1.29-1h14.54C113.08,74.26,113.4,74.31,113.73,74.34Z"/><path class="cls-5" d="M97.67,76.29c.2-.19.46-.13.69-.13l15.46,0c-.18.24-.44.16-.67.16H98A2.51,2.51,0,0,1,97.67,76.29Z"/><path class="cls-6" d="M97.67,73a.77.77,0,0,1,.6-.13h15.54c-.15.22-.37.16-.58.16H97.94A1.64,1.64,0,0,1,97.67,73Z"/><path class="cls-1" d="M119,94.32c-1.71-2.74-3.29-5.44-3.21-8.82a6.25,6.25,0,0,0-2-4.2,1.21,1.21,0,0,0-1-.45q-7.3.07-14.61.09a1.52,1.52,0,0,0-1.25.59,7.26,7.26,0,0,0-1.89,5.07A9.52,9.52,0,0,1,93.61,92a30.31,30.31,0,0,0-4.07,8.71c-.24,1-.43,1.93-.65,2.89v4c.19.06.15.23.18.37a17,17,0,0,0,6.17,10.93c3.81,3,8.2,3.7,12.91,3.17,8.48-1,13.57-7.78,14.19-15.48A19.83,19.83,0,0,0,119,94.32ZM108.2,120c-4.65.62-9-.1-12.61-3.52A15,15,0,0,1,91.1,107c-.53-4.54,1.05-8.54,3.34-12.32a16,16,0,0,0,2.62-6.24,29.81,29.81,0,0,1,.22-3.18,4.43,4.43,0,0,1,.28-1A1.87,1.87,0,0,1,99.49,83c2,.1,4,0,6,0v-.14h5.29c2,0,2.88.9,2.93,3a18.09,18.09,0,0,0,.44,3.51,13.27,13.27,0,0,0,2,4.34,22.9,22.9,0,0,1,4,9.68C121,109.83,117.51,118.71,108.2,120Z"/><path class="cls-1" d="M85.74,0c0,3.25,0,6.51,0,9.76a1.61,1.61,0,0,0,.7,1.38c1.26,1.11,2.35,2.41,3.5,3.62H79.59c-.13-.27.14-.37.27-.49,1.25-1.15,2.25-2.58,3.75-3.44.37-.21.24-.52.24-.8,0-3,0-6,0-9,0-.33,0-.67.05-1Z"/><path class="cls-2" d="M84.64,24.67H77.25c-1,0-1.46-.35-1.42-1.11s.68-1,1.41-1H91.94c.91,0,1.55.48,1.46,1.12-.12.81-.68,1-1.45,1C89.51,24.65,87.08,24.67,84.64,24.67Z"/><path class="cls-1" d="M76.62,18a1,1,0,0,1-.78-1.23c.11-.61.56-.8,1.15-.8q7.62,0,15.24,0a1,1,0,0,1,1.1.76.84.84,0,0,1-.56,1.15,2.61,2.61,0,0,1-1,.07H77.62A3.87,3.87,0,0,0,76.62,18Z"/><path class="cls-3" d="M76.62,21.32c-.55-.13-.86-.43-.76-1a1.62,1.62,0,0,1,1.65-.84c4.73,0,9.45,0,14.18,0a2,2,0,0,0,1-.08c.93.58,1,1.21.1,1.83a2.61,2.61,0,0,1-1,.07H77.62A4.11,4.11,0,0,0,76.62,21.32Z"/><path class="cls-4" d="M92.68,19.37c-.3.3-.69.17-1,.17H79.26c-1.18,0-2.42-.25-3.39.74,0-.92.62-1,1.29-1H91.69C92,19.29,92.35,19.34,92.68,19.37Z"/><path class="cls-5" d="M76.62,21.32c.2-.19.46-.13.69-.13l15.46,0c-.18.24-.44.16-.67.16H77A2.51,2.51,0,0,1,76.62,21.32Z"/><path class="cls-6" d="M76.62,18a.77.77,0,0,1,.6-.13H92.77c-.15.22-.37.16-.58.16H76.89A1.64,1.64,0,0,1,76.62,18Z"/><path class="cls-1" d="M97.94,39.34c-1.71-2.74-3.29-5.44-3.21-8.82a6.25,6.25,0,0,0-2-4.2,1.21,1.21,0,0,0-1-.45q-7.3.07-14.61.09a1.52,1.52,0,0,0-1.25.59A7.26,7.26,0,0,0,74,31.63,9.52,9.52,0,0,1,72.55,37a30.31,30.31,0,0,0-4.07,8.71c-.24,1-.43,1.93-.65,2.89v4c.19.06.15.23.18.37a17,17,0,0,0,6.17,10.93c3.81,3,8.2,3.7,12.91,3.17,8.48-1,13.57-7.78,14.19-15.48A19.83,19.83,0,0,0,97.94,39.34ZM87.15,65c-4.65.62-9-.1-12.61-3.52A15,15,0,0,1,70,52c-.53-4.54,1.05-8.54,3.34-12.32A16,16,0,0,0,76,33.49a29.81,29.81,0,0,1,.22-3.18,4.43,4.43,0,0,1,.28-1,1.87,1.87,0,0,1,1.94-1.28c2,.1,4,0,6,0V28h5.29c2,0,2.88.9,2.93,3a18.09,18.09,0,0,0,.44,3.51,13.27,13.27,0,0,0,2,4.34,22.9,22.9,0,0,1,4,9.68C99.93,54.86,96.46,63.74,87.15,65Z"/><path class="cls-7" d="M206,27.14c0,3.22,0,6.44,0,9.66a1.64,1.64,0,0,0,.7,1.37c1.23,1.14,2.3,2.45,3.33,3.57H200c-.11-.25.15-.34.28-.47,1.25-1.13,2.23-2.54,3.71-3.41.4-.23.25-.58.25-.88,0-3.28,0-6.56,0-9.85Z"/><path class="cls-8" d="M204.88,48.32h-7.22c-1,0-1.45-.33-1.42-1.08s.66-1,1.38-1h14.61c.76,0,1.31.23,1.39,1.06.06.65-.49,1.07-1.36,1.07Z"/><path class="cls-9" d="M204.86,49.43h7.32c.95,0,1.49.41,1.47,1.08s-.57,1.05-1.51,1.05H197.78c-1.06,0-1.54-.34-1.53-1.09s.46-1,1.57-1Z"/><path class="cls-10" d="M197,45a1,1,0,0,1-.75-1.24c.12-.63.59-.76,1.15-.77,5-.07,10.06-.09,15.08,0a1,1,0,0,1,1.09.73,1,1,0,0,1-.71,1.27c-3.64-.1-7.28,0-10.91,0C200.32,45,198.67,44.89,197,45Z"/><path class="cls-11" d="M193.93,69.1c.29.27.17.62.17.94q0,13.24,0,26.48c0,.32.11.67-.14,1,0-3.86,0-7.71,0-11.57Q193.92,77.5,193.93,69.1Z"/><path class="cls-12" d="M197,45c.2-.19.45-.13.68-.13h14.5c.23,0,.48-.06.69.13-2.77,0-5.53,0-8.3,0C202.07,45,199.54,45,197,45Z"/><path class="cls-13" d="M212.18,52.85c-.22.23-.51.15-.77.15H198.5c-.26,0-.55.08-.77-.16C202.55,52.76,207.36,52.75,212.18,52.85Z"/><path class="cls-10" d="M219.26,59.56a8.26,8.26,0,0,0-7.08-6.71,1.14,1.14,0,0,1-.53.07H198.26a1,1,0,0,1-.53-.07c-3.64-.1-7.46,3.58-7.61,7.45-.1,2.71,0,5.42,0,8.13,0,.54.2.65.69.64,1.05,0,2.11,0,3.16,0a1.44,1.44,0,0,1,.08.79q0,13.44,0,26.87a1.71,1.71,0,0,1-.06.71,5,5,0,0,0,5,4.91q5.74,0,11.47,0a5,5,0,0,0,5.06-5c0-2.74,0-5.48,0-8.22,0-6.38,0-12.77,0-19.15,0-.76.21-1,1-.95,1,.07,2,0,3,.06v-9C219.27,59.92,219.29,59.74,219.26,59.56Zm-5.81,10.3q0,7,0,14,0,6.42,0,12.84c0,2.17-.76,3.14-2.9,3.7a31.69,31.69,0,0,1-3.59.06c-2.61,0-5.22,0-7.84,0-.28,0-.6.13-.85-.14a3.79,3.79,0,0,1-2.34-2.69c-.18-.24-.1-.52-.1-.79q0-13.49,0-27c0-.26-.09-.54.1-.78,5.63,0,11.27,0,16.9-.06C213.5,69,213.45,69.41,213.45,69.86Zm3.11-2.9c-3.95,0-7.9,0-11.84,0s-7.84,0-11.75,0c-.68,0-.87-.18-.85-.85,0-1.78,0-3.56,0-5.33a6.25,6.25,0,0,1,5.75-5.92q6.82-.09,13.65,0A6.28,6.28,0,0,1,217.4,61c0,1.69,0,3.38,0,5.06C217.45,66.79,217.24,67,216.56,67Z"/><path class="cls-14" d="M195.94,69.1q0,14.27,0,28.54l-.06.35-.1,0c0-.17,0-.35,0-.52q0-13.73,0-27.47C195.74,69.71,195.61,69.35,195.94,69.1Z"/><path class="cls-15" d="M198.28,100.33l11.37.06.9,0c-.22.24-.5.15-.76.15H199.08C198.8,100.56,198.46,100.69,198.28,100.33Z"/><path class="cls-16" d="M210.9,73.49v.09c0,1.26-.56,1.67-1.8,1.3-.06,0-.16,0-.17,0a6.22,6.22,0,0,1-.11-2.47c0-.52.56-.31.88-.31C210.9,72,210.9,72,210.9,73.49Z"/><path class="cls-17" d="M208.79,79a1.26,1.26,0,0,1,0-.18c.06-.37-.2-1,.15-1.08a5,5,0,0,1,1.69-.07c.22,0,.27.2.27.39,0,.66,0,1.32,0,2,0,.29-.14.44-.44.43a3.94,3.94,0,0,0-.72,0c-.74.11-1.07-.17-.94-.93A3.4,3.4,0,0,0,208.79,79Z"/><path class="cls-18" d="M210.9,95.67q0,.09,0,.18a1.2,1.2,0,0,1-1.82,1.22.39.39,0,0,1-.27-.41c0-.66,0-1.32,0-2,0-.31.16-.42.45-.42a6.1,6.1,0,0,0,.72,0c.66-.07,1.05.12.93.88a3.33,3.33,0,0,0,0,.54Z"/><path class="cls-19" d="M210.9,90.1s0,.06,0,.09c0,1.33-.47,1.68-1.78,1.34-.2-.05-.32-.13-.32-.35,0-.69,0-1.38,0-2.07,0-.32.18-.41.46-.39l.27,0C210.9,88.75,210.9,88.75,210.9,90.1Z"/><path class="cls-19" d="M205.87,95.65a1.81,1.81,0,0,1,0,.27c-.06.37.21.95-.17,1.08A4.61,4.61,0,0,1,204,97c-.26,0-.26-.3-.25-.5,0-.57.06-1.14,0-1.71s.18-.6.63-.59C206.19,94.28,205.83,94.1,205.87,95.65Z"/><path class="cls-20" d="M210.9,84.54s0,.06,0,.09c0,1.27-.58,1.78-1.76,1.27-.79-.34-.21-1.28-.32-1.93,0-.26-.21-.72.33-.76s.84,0,1.26,0,.53.17.5.54S210.9,84.27,210.9,84.54Z"/><path class="cls-21" d="M203.8,79a2.1,2.1,0,0,1,0-.25c.06-.37-.2-.95.15-1.07a4.53,4.53,0,0,1,1.68,0c.27,0,.23.31.24.51q0,.54,0,1.08c0,1.37.19,1.13-1.17,1.22S204,79.46,203.8,79Z"/><path class="cls-22" d="M198.77,95.6v-.09c0-1.18.73-1.78,1.74-1.2.75.43.15,1.43.29,2.15,0,.25.1.59-.32.61s-.9,0-1.35,0c-.28,0-.36-.16-.36-.4S198.77,96,198.77,95.6Z"/><path class="cls-7" d="M205.86,73.51a1.3,1.3,0,0,1,0,.18c-.05.38.19,1-.13,1.09a3.53,3.53,0,0,1-1.68.07c-.46-.07-.27-.56-.24-.83.07-.66-.36-1.49.26-1.92.36-.25,1.05-.06,1.59,0,.23,0,.19.27.19.44C205.87,72.85,205.86,73.18,205.86,73.51Z"/><path class="cls-23" d="M200.81,73.46s0,.06,0,.09c0,1.33-.43,1.65-1.73,1.34-.36-.09-.3-.31-.3-.53,0-.57,0-1.14,0-1.7s.17-.64.67-.62C200.8,72.08,200.8,72.06,200.81,73.46Z"/><path class="cls-24" d="M203.8,90.14c0-1.56,0-1.53,1.54-1.41.71.05.6.56.5.89-.19.63.64,1.64-.47,1.87C203.83,91.81,203.8,91.7,203.8,90.14Z"/><path class="cls-25" d="M198.77,79.12c0-.16,0-.25,0-.34,0-1.09.79-1.68,1.75-1.11.69.41.19,1.31.28,2,0,.24.22.69-.22.75a3.15,3.15,0,0,1-1.6,0C198.49,80.14,198.92,79.48,198.77,79.12Z"/><path class="cls-26" d="M198.78,90c.07-.35-.21-1,.1-1.12a4.53,4.53,0,0,1,1.67-.12c.32,0,.27.26.27.46a9.55,9.55,0,0,0,0,1.25c.14.91-.18,1.21-1.1,1.12S198.78,91.53,198.78,90Z"/><path class="cls-24" d="M205.86,84.59c0,1.37-.38,1.77-1.66,1.3-.89-.33-.22-1.37-.4-2.07-.06-.26-.14-.58.35-.65C205.62,83,205.86,83.13,205.86,84.59Z"/><path class="cls-27" d="M200.81,84.62a1.34,1.34,0,0,1,0,.27c-.07.34.2.88-.17,1a5.09,5.09,0,0,1-1.69,0c-.22,0-.17-.28-.17-.45,0-.57,0-1.14,0-1.71s.16-.54.57-.55C200.81,83.12,200.81,83.11,200.81,84.62Z"/><text class="cls-28" transform="translate(132.23 86.25)">=</text></g></g></svg>