<svg xmlns="http://www.w3.org/2000/svg" viewBox="0 0 119.41 111.63"><defs><style>.cls-1{fill:#fff;}</style></defs><title>proteccionAmbiente</title><g id="Capa_2" data-name="Capa 2"><g id="Capa_1-2" data-name="Capa 1"><path class="cls-1" d="M108.34,84.2C101,69.28,91.1,62.33,91.1,62.33H52.95s-3.48.75-5,3.36a7.47,7.47,0,0,0-.84,3.94,1.21,1.21,0,0,1-1.94,1l-12.9-9.49a4.49,4.49,0,0,0-5-.25l-2.83,1.69A2.58,2.58,0,0,1,21,61.71a4.42,4.42,0,0,0-3.26-1.89C13,59.41,5.57,59,4.56,60S1.79,65.09.47,68.13A5.72,5.72,0,0,0,1.53,74.3L24,98.49a3,3,0,0,0,2.16,1c6.7,0,37.68.27,44.79.37,7.87,1.37,11.94,11.76,11.94,11.76s36.41.19,36.51-.15C119.41,105,115.68,99.12,108.34,84.2Zm-23.06,22S81.74,94.69,75.2,93.63c-6.63-.09-43.41-.18-43.41-.18L6.51,71.35s-1.24-2,0-3.27,3.8,0,3.8,0l19.36,15,31.12-.18H72.64s3.89-1.59,3.89-4.07c0-3.27-4.24-4.24-4.24-4.24h-17s-2.21,0-2.21-3.18,2.17-3.36,2.17-3.36H87s8.22,5.39,14.32,17,9.19,16.18,9.19,21.13C110.39,106.45,85.28,106.18,85.28,106.18Z"/><path class="cls-1" d="M66.45,46.26A21.83,21.83,0,0,0,57.08,24.4C44.7,15.74,39.57,17.86,32.32,14s-14-8.31-16.27-14c0,0-3,19.1,12.55,38.37,7.07,9.9,15.43,12.2,38.57,12.38S94.9,47.1,94.9,47.1s1.84-2-1.25-2.09c0,0-22.52,4.85-35.6,1.49A45.06,45.06,0,0,1,36.88,30.61C37,30.74,54.65,48.18,66.45,46.26Z"/></g></g></svg>