<svg id="Capa_1" data-name="Capa 1" xmlns="http://www.w3.org/2000/svg" viewBox="0 0 695.37 443.24"><defs><style>.cls-1{fill:#2c7aad;}.cls-2{fill:#4cb6b8;}.cls-3,.cls-4{fill:none;}.cls-3{stroke:#1f140f;stroke-miterlimit:10;stroke-width:0.25px;}</style></defs><title>logo</title><path class="cls-1" d="M481.36,309.57,335.47,102.49h116l56,70.72,51.27-70.72H683.37L536.05,309.57Z"/><polygon class="cls-2" points="695.37 373.4 695.37 102.49 548.04 309.57 548.04 373.4 695.37 373.4"/><path class="cls-2" d="M314.33,0V371.89L219,439V75.12Z"/><polygon class="cls-2" points="323.48 373.4 323.48 102.49 469.38 309.57 469.38 373.37 323.48 373.4"/><path class="cls-3" d="M481.36,317.38"/><path class="cls-3" d="M219,439"/><line class="cls-4" x1="188.04" y1="417.36" x2="225.03" y2="443.24"/><line class="cls-4" x1="162.16" y1="116.06" x2="314.33" y2="6.54"/><polygon class="cls-1" points="0 257.09 0 285.37 209.9 432.7 209.9 307.77 139.99 257.09 0 257.09"/></svg>